<?xml version="1.0" encoding="UTF-8"?>
<svg version="1.1" xmlns="http://www.w3.org/2000/svg" width="1875" height="1138">
<path d="M0 0 C1.27077393 -0.00067474 2.54154785 -0.00134949 3.85083008 -0.00204468 C23.99919799 0.01492217 43.76171771 0.63447432 63.75 3.25 C64.7643512 3.3808197 64.7643512 3.3808197 65.79919434 3.51428223 C129.11853512 11.71791082 188.79534746 30.66373216 245.75 59.25 C247.13034424 59.94222656 247.13034424 59.94222656 248.53857422 60.6484375 C271.78609966 72.39455562 293.77252761 86.39686551 314.75 101.8125 C356.34704892 132.19179966 405.23431614 152.84675843 456 161.5 C456.88429688 161.65114258 457.76859375 161.80228516 458.6796875 161.95800781 C476.02540947 164.72607512 493.26658069 165.62901099 510.8125 165.5625 C511.84180634 165.56034485 512.87111267 165.5581897 513.93161011 165.55596924 C530.05173291 165.50196966 545.82397157 164.95538303 561.75 162.25 C562.93722656 162.05132324 564.12445312 161.85264648 565.34765625 161.64794922 C609.13228536 154.09204438 650.69435338 136.78898763 692.27758789 121.61425781 C707.3720249 116.10635857 722.48515106 110.65094562 737.60239029 105.20602036 C758.94762925 97.51758684 780.28001202 89.79503983 801.59777832 82.03067017 C814.95529343 77.16623991 828.31811675 72.31697086 841.69140625 67.49609375 C842.36471859 67.25336353 843.03803093 67.01063332 843.73174667 66.76054764 C850.89456474 64.17858305 858.05821494 61.59894166 865.22265625 59.02148438 C866.41551239 58.59179352 867.60836853 58.16210266 868.83737183 57.71939087 C871.20503334 56.8673013 873.5734546 56.01731961 875.94265747 55.16952515 C881.5790778 53.14617111 887.19954314 51.09167117 892.78862476 48.94125652 C895.49287378 47.9015802 898.20185887 46.87453838 900.9109478 45.84755135 C902.80875394 45.12150566 904.69910388 44.37606244 906.58912659 43.62998962 C914.09405748 40.78888687 921.90377947 38.21517784 929.83226013 40.9747467 C933.76028959 43.01314798 936.36763524 45.57823698 938.75 49.25 C939.2003486 52.05151923 939.40106718 54.33581156 939.375 57.125 C939.40722656 57.80691406 939.43945312 58.48882812 939.47265625 59.19140625 C939.48216297 64.18243557 938.1085238 67.06518185 934.65527344 70.65039062 C931.12722193 73.61243489 927.18569942 75.55331384 923.0625 77.5625 C920.98555109 78.61042741 918.90873686 79.65862176 916.83203125 80.70703125 C915.69846191 81.27244629 914.56489258 81.83786133 913.39697266 82.42041016 C909.52313823 84.35699831 905.67244289 86.33732606 901.82421875 88.32421875 C900.79008598 88.85804924 900.79008598 88.85804924 899.73506165 89.40266418 C898.30514619 90.14089321 896.87526082 90.8791805 895.44540405 91.61752319 C891.69527993 93.5519865 887.94142763 95.47918064 884.1875 97.40625 C883.41891159 97.80083908 882.65032318 98.19542816 881.85844421 98.60197449 C871.34111159 104.00070031 860.8210665 109.39414011 850.30078125 114.78710938 C839.61289325 120.26641003 828.92966284 125.75468668 818.25 131.25 C805.09636841 138.01831544 791.93554485 144.77250045 778.77148438 151.52050781 C767.25986288 157.42169026 755.75262839 163.33130827 744.25 169.25 C732.00459675 175.5506447 719.75440025 181.84187132 707.5 188.125 C706.6898645 188.54038025 705.879729 188.9557605 705.04504395 189.38372803 C698.45388217 192.7631018 691.8624443 196.14193691 685.27099609 199.52075195 C679.51386905 202.47191767 673.75685006 205.423294 668 208.375 C667.18954224 208.79054138 666.37908447 209.20608276 665.54406738 209.63421631 C653.39208756 215.86524768 641.24554511 222.10677985 629.10241699 228.3550415 C616.66451747 234.75475211 604.21911501 241.13974837 591.77148438 247.52050781 C580.259863 253.4216902 568.75259348 259.33124057 557.25 265.25 C545.74540408 271.1697898 534.23611451 277.08033497 522.72247314 282.98251343 C515.39783682 286.73740889 508.07386459 290.49359956 500.75 294.25 C499.94792114 294.66135193 499.14584229 295.07270386 498.31945801 295.496521 C493.5796838 297.92751412 488.84056285 300.3597734 484.10229492 302.79370117 C482.65440994 303.53724399 481.2063406 304.28042796 479.75805664 305.02319336 C469.3767654 310.34778714 459.05060385 315.77097238 448.75 321.25 C450.00333078 325.14350009 451.39637331 328.89773402 453.03515625 332.64453125 C472.85652284 378.41190469 485.88550836 425.70355615 491.75 475.25 C491.86182617 476.18650391 491.97365234 477.12300781 492.08886719 478.08789062 C502.89155947 572.61996758 482.91394369 668.51730089 389.77709961 834.26660156 C382.7561855 843.04434364 375.45945509 851.58079057 367.890625 859.890625 C366.53220498 861.38786166 365.1867458 862.89704408 363.859375 864.421875 C358.53835528 870.497055 352.88774587 876.21920499 347.1875 881.9375 C346.38393066 882.74566162 345.58036133 883.55382324 344.75244141 884.38647461 C339.9119184 889.21459111 334.93840588 893.80057954 329.75 898.25 C328.59336247 899.2715276 327.43837057 900.29492197 326.28515625 901.3203125 C317.1045042 909.4225105 307.58592524 916.96074068 297.75 924.25 C297.01346191 924.79688477 296.27692383 925.34376953 295.51806641 925.90722656 C216.60763503 984.2718149 117.45484008 1022.06258193 18.63671875 1022.453125 C17.43614838 1022.46018463 16.235578 1022.46724426 14.99862671 1022.47451782 C11.14487651 1022.49202709 7.29128869 1022.49850286 3.4375 1022.5 C2.44996798 1022.50044186 2.44996798 1022.50044186 1.44248581 1022.50089264 C-19.28281606 1022.50238939 -39.69945833 1022.16574453 -60.25 1019.25 C-60.95374756 1019.15054077 -61.65749512 1019.05108154 -62.38256836 1018.9486084 C-152.62711333 1006.07707964 -241.98999939 971.03156972 -311.359375 910.7421875 C-314.02418199 908.44469174 -316.74413717 906.24903788 -319.5 904.0625 C-330.7669942 894.86928589 -341.07789827 884.49944047 -351.375 874.25 C-352.06094238 873.56873047 -352.74688477 872.88746094 -353.45361328 872.18554688 C-357.92206778 867.70285117 -362.12050007 863.0444914 -366.25 858.25 C-367.27176953 857.09357619 -368.29515732 855.93857979 -369.3203125 854.78515625 C-377.4225105 845.6045042 -384.96074068 836.08592524 -392.25 826.25 C-392.79688477 825.51346191 -393.34376953 824.77692383 -393.90722656 824.01806641 C-406.18734583 807.41502788 -417.073969 790.21347595 -427.25 772.25 C-431.15836411 772.85522298 -434.14974738 774.04878995 -437.640625 775.890625 C-439.26073486 776.73790161 -439.26073486 776.73790161 -440.91357422 777.60229492 C-441.49395447 777.90944427 -442.07433472 778.21659363 -442.67230225 778.53305054 C-445.2202859 779.88106961 -447.77579545 781.21454071 -450.3309021 782.54899597 C-451.73003288 783.2797867 -453.12880638 784.0112618 -454.5272522 784.74336243 C-462.50309658 788.91562257 -470.5165615 793.01393435 -478.53106689 797.11129761 C-482.03215381 798.9013013 -485.53234109 800.69306062 -489.03256226 802.48475647 C-490.80402652 803.39152292 -492.57553132 804.29821021 -494.34707642 805.20481873 C-503.60866297 809.94460193 -512.86733618 814.69006028 -522.125 819.4375 C-522.93136902 819.85099701 -523.73773804 820.26449402 -524.56854248 820.69052124 C-536.6830379 826.90312578 -548.79212096 833.12619803 -560.89813232 839.35531616 C-573.33584775 845.75493718 -585.78106714 852.13984174 -598.22851562 858.52050781 C-609.740137 864.4216902 -621.24740652 870.33124057 -632.75 876.25 C-645.90363159 883.01831544 -659.06445515 889.77250045 -672.22851562 896.52050781 C-683.740137 902.4216902 -695.24740652 908.33124057 -706.75 914.25 C-719.90363159 921.01831544 -733.06445515 927.77250045 -746.22851562 934.52050781 C-757.740137 940.4216902 -769.24740652 946.33124057 -780.75 952.25 C-793.90363159 959.01831544 -807.06445515 965.77250045 -820.22851562 972.52050781 C-831.02703049 978.05613165 -841.82217523 983.5982256 -852.61230469 989.150177 C-856.87675001 991.34419175 -861.14178878 993.53705281 -865.40673828 995.73008728 C-869.44362406 997.80605535 -873.47993371 999.88313648 -877.515625 1001.96142578 C-882.04485516 1004.29378403 -886.57519188 1006.62398091 -891.10620117 1008.95288086 C-892.85806138 1009.85380518 -894.60953142 1010.75548865 -896.3605957 1011.65795898 C-898.79147043 1012.9106668 -901.22369418 1014.16071672 -903.65625 1015.41015625 C-904.38263672 1015.78527847 -905.10902344 1016.1604007 -905.85742188 1016.54689026 C-912.2101403 1019.80352866 -917.13101113 1021.16755857 -924.25 1020.25 C-929.32486231 1018.32207105 -933.22029668 1015.1762961 -935.62890625 1010.2734375 C-937.20931103 1005.12469741 -936.84482232 1000.14599614 -935.25 995.0625 C-930.0997429 987.81995095 -922.23214165 982.99327069 -914.9375 978.125 C-912.98033255 976.8048894 -911.02330377 975.4845732 -909.06640625 974.1640625 C-908.09074707 973.50825195 -907.11508789 972.85244141 -906.10986328 972.17675781 C-901.84973272 969.30660668 -897.61175261 966.40450106 -893.375 963.5 C-892.59817871 962.96826172 -891.82135742 962.43652344 -891.02099609 961.88867188 C-883.42268658 956.68738129 -875.83545289 951.47001444 -868.25 946.25 C-858.95029814 939.85030592 -849.64220056 933.4631611 -840.32373047 927.09082031 C-832.62332341 921.82384816 -824.93541947 916.53880755 -817.25 911.25 C-807.95029814 904.85030592 -798.64220056 898.4631611 -789.32373047 892.09082031 C-782.27510096 887.26965501 -775.236731 882.43369427 -768.20166016 877.59277344 C-764.2161593 874.85068504 -760.22927838 872.11060343 -756.24267578 869.37011719 C-752.94650359 867.10414936 -749.65062803 864.83775309 -746.35546875 862.5703125 C-738.35329267 857.06481536 -730.34145005 851.57365612 -722.32373047 846.09082031 C-715.27510096 841.26965501 -708.236731 836.43369427 -701.20166016 831.59277344 C-698.55389487 829.77106852 -695.90550269 827.95027676 -693.25683594 826.12988281 C-691.91982927 825.21056874 -690.5832399 824.29064748 -689.24707031 823.37011719 C-685.93556089 821.0897171 -682.61792852 818.81954357 -679.28515625 816.5703125 C-659.09692455 802.90619012 -640.66072911 787.80425328 -623.375 770.625 C-622.64503815 769.90307465 -622.64503815 769.90307465 -621.90032959 769.16656494 C-615.22204114 762.54417592 -609.06415698 755.64663355 -603.25 748.25 C-602.67024414 747.51894043 -602.09048828 746.78788086 -601.49316406 746.03466797 C-553.04438827 684.49915389 -529.9709555 610.985021 -528.95996094 533.11132812 C-527.85095312 447.9570565 -510.61217706 363.58150478 -460.25 268.25 C-459.8473291 267.5266748 -459.4446582 266.80334961 -459.02978516 266.05810547 C-443.56053082 238.38643718 -424.68181601 212.43120849 -404.25 188.25 C-403.70537109 187.60095703 -403.16074219 186.95191406 -402.59960938 186.28320312 C-397.2899866 179.95916633 -391.96201524 173.77606385 -386.02734375 168.0234375 C-384.25132569 166.25132277 -382.62565197 164.41023853 -381 162.5 C-374.38412321 154.82437178 -367.07855339 147.64720071 -359.36328125 141.08203125 C-357.19349536 139.20101539 -355.0851713 137.26070013 -352.98095703 135.30688477 C-346.93336884 129.69646009 -340.70765134 124.38815831 -334.25 119.25 C-333.73775879 118.83814453 -333.22551758 118.42628906 -332.69775391 118.00195312 C-264.68732803 63.3305319 -184.3511161 25.97130877 -41.25 1.25 C-39.68113037 1.09313721 -39.68113037 1.09313721 -38.08056641 0.93310547 C-25.42440236 -0.16461303 -12.69317331 0.0060516 0 0 Z M-249.25 103.25 C-250.22775391 103.82540527 -251.20550781 104.40081055 -252.21289062 104.99365234 C-275.22769792 118.60185241 -296.77749553 134.04720488 -317.25 151.25 C-317.76030762 151.67539063 -318.27061523 152.10078125 -318.79638672 152.5390625 C-334.84786488 165.94321963 -350.8720346 180.23909761 -364.45703125 196.1796875 C-366.58146824 198.6327411 -368.79188637 200.99703147 -371 203.375 C-376.28209453 209.16852275 -381.08738178 215.27199502 -385.87207031 221.47802734 C-387.19778028 223.18284714 -388.54311971 224.86944372 -389.8984375 226.55078125 C-411.53496098 253.4659631 -429.23544448 283.21061848 -444.27587891 314.24853516 C-445.30018693 316.3531159 -446.34352642 318.44769192 -447.38671875 320.54296875 C-479.16295366 385.12228107 -492.51586133 457.78656703 -493.63650513 529.26855469 C-494.94958161 612.47564168 -516.305659 692.1894389 -567.25 759.25 C-567.72002441 759.87165039 -568.19004883 760.49330078 -568.67431641 761.13378906 C-571.79077667 765.23526745 -574.98919514 769.26252777 -578.25 773.25 C-578.70181641 773.80623047 -579.15363281 774.36246094 -579.61914062 774.93554688 C-586.88085973 783.80195356 -594.79975028 792.00500349 -602.875 800.125 C-603.35610229 800.61136932 -603.83720459 801.09773865 -604.33288574 801.59884644 C-610.95841096 808.2804364 -617.88793869 814.38923299 -625.25 820.25 C-626.55559429 821.33432814 -627.85806625 822.42243567 -629.15625 823.515625 C-638.39045635 831.21437758 -648.03490881 838.08090671 -658.02734375 844.75732422 C-661.35442031 846.99169879 -664.64726534 849.27436492 -667.9375 851.5625 C-669.49017578 852.63951172 -669.49017578 852.63951172 -671.07421875 853.73828125 C-671.79222656 854.23714844 -672.51023437 854.73601563 -673.25 855.25 C-672.59 855.58 -671.93 855.91 -671.25 856.25 C-668.85720987 855.23815983 -666.59225399 854.16399236 -664.28515625 852.98046875 C-663.57838242 852.62543777 -662.87160858 852.2704068 -662.14341736 851.90461731 C-659.8626193 850.75632005 -657.58766903 849.59690319 -655.3125 848.4375 C-653.84474961 847.69787559 -652.37665383 846.95893617 -650.90820312 846.22070312 C-642.44545996 841.95392184 -634.04514319 837.57538326 -625.66642761 833.14630127 C-616.6957174 828.41332401 -607.6579559 823.81298011 -598.61914062 819.21179199 C-593.43992196 816.57509502 -588.26294006 813.93401359 -583.0859375 811.29296875 C-582.06119324 810.77026398 -581.03644897 810.2475592 -579.98065186 809.70901489 C-571.39298082 805.32685339 -562.81761426 800.92122391 -554.25 796.5 C-542.46710189 790.42031869 -530.67446334 784.35997385 -518.875 778.3125 C-507.89146371 772.68285531 -496.90912743 767.0509422 -485.93457031 761.40380859 C-483.08097477 759.93559364 -480.22609142 758.46992988 -477.37011719 757.00634766 C-470.46986318 753.4676015 -463.5826581 749.90717753 -456.72323608 746.28977966 C-453.3460861 744.51070837 -449.96328342 742.74254471 -446.57989502 740.97537231 C-444.96281769 740.1270309 -443.34843347 739.27353297 -441.73699951 738.41452026 C-439.49544161 737.22007371 -437.24509395 736.04395993 -434.9921875 734.87109375 C-434.34052612 734.51785034 -433.68886475 734.16460693 -433.01745605 733.80065918 C-426.90955992 730.66235223 -420.69138207 729.32555092 -414 731.3125 C-406.58093369 733.99160728 -403.14181585 742.8321968 -399.75 749.3125 C-384.35978027 778.06348633 -365.61597424 804.63418502 -344.25 829.25 C-343.33347656 830.31734375 -343.33347656 830.31734375 -342.3984375 831.40625 C-340.69983739 833.37050795 -338.98004561 835.31338178 -337.25 837.25 C-336.14205078 838.49716797 -336.14205078 838.49716797 -335.01171875 839.76953125 C-329.20429184 846.21145701 -323.18498857 852.41930403 -317.0625 858.5625 C-316.31444092 859.31515137 -315.56638184 860.06780273 -314.7956543 860.84326172 C-310.10854623 865.51744625 -305.27198869 869.94005968 -300.25 874.25 C-299.20182115 875.17560891 -298.15486934 876.10260995 -297.109375 877.03125 C-287.25651841 885.6882412 -276.82703865 893.505111 -266.25 901.25 C-265.54004883 901.7759375 -264.83009766 902.301875 -264.09863281 902.84375 C-202.51072442 948.38974292 -127.66819713 975.27919014 -52 984.5 C-51.32006989 984.58317474 -50.64013977 984.66634949 -49.93960571 984.75204468 C34.47064132 994.94635804 119.3892072 979.82168324 270.75 900.25 C271.43433105 899.75113281 272.11866211 899.25226562 272.82373047 898.73828125 C284.85605945 889.94227284 296.22396575 880.56099712 307.23828125 870.515625 C308.62325166 869.26635154 310.01476655 868.02379803 311.43286133 866.81225586 C316.99539231 862.04528218 322.20234987 856.95084493 327.3684082 851.76196289 C328.81025221 850.31475615 330.25737116 848.87297974 331.70507812 847.43164062 C336.93269653 842.20805078 341.96604461 836.88314096 346.75 831.25 C347.595625 830.28578125 348.44125 829.3215625 349.3125 828.328125 C369.35190698 805.07727459 387.08739887 779.21645985 401.75 752.25 C402.22066895 751.39083984 402.69133789 750.53167969 403.17626953 749.64648438 C452.1504172 659.72356762 470.0292632 554.70416831 441.75 404.25 C434.7396695 380.84711647 426.56552191 357.8061191 415.6171875 335.9296875 C415.10615479 334.90077393 414.59512207 333.87186035 414.06860352 332.81176758 C413.10168807 330.88624378 412.11421382 328.97083052 411.10131836 327.0690918 C407.66234471 320.28381712 406.2669289 313.73266855 408.29760742 306.22558594 C412.17423604 297.84776712 424.05179615 293.9470962 431.84765625 290.01171875 C432.7868541 289.53380386 433.72605194 289.05588898 434.69371033 288.56349182 C436.69564313 287.54527297 438.69839378 286.52866073 440.7019043 285.5135498 C444.93718555 283.36765403 449.16846268 281.21391697 453.3999939 279.06063843 C455.52887907 277.97741234 457.65796794 276.8945865 459.78726196 275.81216431 C468.45677633 271.40417098 477.10831901 266.96225674 485.75 262.5 C488.37224233 261.14683777 490.99467413 259.79404312 493.6171875 258.44140625 C494.26879349 258.10529327 494.92039948 257.7691803 495.5917511 257.42288208 C504.01257275 253.08093103 512.44394399 248.75953431 520.875 244.4375 C521.68940552 244.01998474 522.50381104 243.60246948 523.34289551 243.17230225 C528.31401372 240.62386423 533.285336 238.07582452 538.25671387 235.52789307 C545.67147553 231.72757814 553.08585883 227.92652529 560.5 224.125 C561.71541473 223.50182388 561.71541473 223.50182388 562.9553833 222.86605835 C574.39116281 217.00226844 585.82237813 211.12967032 597.25 205.25 C609.23734069 199.08267377 621.22738689 192.92064228 633.22167969 186.7668457 C634.92538548 185.89267702 636.62900137 185.0183331 638.33251953 184.14379883 C655.32600292 175.42038714 655.32600292 175.42038714 663.75 171.25 C659.71754098 169.90584699 657.21802313 171.29298451 653.42578125 172.75 C651.91938153 173.30989333 650.41295124 173.86970444 648.90649414 174.42944336 C648.1163089 174.72688446 647.32612366 175.02432556 646.51199341 175.33078003 C600.75669704 192.50134356 551.91673898 203.38519766 502.75 201.25 C501.66879883 201.20359375 500.58759766 201.1571875 499.47363281 201.109375 C462.53873358 199.38646425 426.83725855 193.07180829 391.75 181.25 C390.75967773 180.91661621 389.76935547 180.58323242 388.74902344 180.23974609 C371.4218929 174.30024712 355.04616239 166.54573182 338.75 158.25 C337.87617676 157.80543457 337.00235352 157.36086914 336.10205078 156.90283203 C318.97480219 148.06675306 303.06481174 136.9619259 287.5625 125.5625 C267.46730432 110.81831083 245.38081109 98.09581132 222.921875 87.30566406 C220.54973114 86.15265709 218.19733315 84.96384935 215.84375 83.7734375 C150.29108672 51.02407733 75.57743835 35.04589346 2.5625 35 C1.58600494 34.99932526 0.60950989 34.99865051 -0.39657593 34.99795532 C-87.81076283 35.09283484 -173.92552301 58.80650754 -249.25 103.25 Z " fill="#000000" transform="translate(936.25,60.75)"/>
<path d="M0 0 C4.33475594 2.0574128 7.15889698 4.86976781 10 8.6875 C11.81951217 14.71463406 12.12334293 20.51928436 9.5 26.3125 C2.69110756 33.63205938 -5.93588985 37.70399709 -14.8125 42 C-17.23744602 43.18390816 -19.65996639 44.37271087 -22.08203125 45.5625 C-23.82540771 46.41714844 -23.82540771 46.41714844 -25.60400391 47.2890625 C-29.76951573 49.38768988 -33.84137905 51.63121546 -37.8972168 53.93359375 C-40 55 -40 55 -42 55 C-41.73896484 55.60134766 -41.47792969 56.20269531 -41.20898438 56.82226562 C-2.40973131 146.71965932 0.03828911 245.54508592 -35.78045654 336.99255371 C-39.19213734 345.4780231 -42.99734222 353.77843768 -47 362 C-47.42490723 362.87350098 -47.84981445 363.74700195 -48.28759766 364.64697266 C-60.02924523 388.45138302 -74.84290769 410.76419601 -92 431 C-92.76054688 431.94488281 -93.52109375 432.88976562 -94.3046875 433.86328125 C-101.36324286 442.51705928 -109.19074749 450.40719462 -117.0625 458.3125 C-117.61694794 458.87212433 -118.17139587 459.43174866 -118.74264526 460.0083313 C-125.82670048 467.14442036 -133.08454652 473.77613997 -141 480 C-142.40167645 481.13723889 -143.80276333 482.27520502 -145.203125 483.4140625 C-162.28705164 497.0594515 -180.62359523 508.8790228 -200 519 C-200.65983887 519.34579102 -201.31967773 519.69158203 -201.99951172 520.04785156 C-250.05818391 545.05030114 -302.70499764 559.59642389 -357 561 C-357.80727539 561.02191406 -358.61455078 561.04382813 -359.44628906 561.06640625 C-444.89348614 563.02097424 -529.02631095 534.29572222 -595 480 C-595.54269531 479.56026855 -596.08539062 479.12053711 -596.64453125 478.66748047 C-605.91203234 471.11728857 -614.40929263 462.79807263 -622.875 454.375 C-623.40920563 453.8460614 -623.94341125 453.3171228 -624.49380493 452.77215576 C-631.46911283 445.85008221 -637.88969732 438.71239424 -644 431 C-644.97632522 429.82596892 -645.95621466 428.65488206 -646.94140625 427.48828125 C-656.22821779 416.31038774 -664.12088229 404.19349969 -672 392 C-672.52223145 391.19804199 -673.04446289 390.39608398 -673.58251953 389.56982422 C-677 384.24133957 -677 384.24133957 -677 382 C-687.9207482 387.40390245 -698.79337652 392.88188671 -709.55395508 398.59912109 C-711.00179628 399.36787219 -712.45136342 400.13338359 -713.90283203 400.89526367 C-715.31590701 401.6396367 -716.72309359 402.39528341 -718.12451172 403.16137695 C-723.90960313 406.23534618 -728.45848466 406.81267292 -735 406 C-740.28923987 404.23692004 -742.80008936 401.38844888 -746 397 C-747.9225412 391.2323764 -748.02086212 385.12025209 -745.375 379.625 C-739.40178387 373.02302427 -732.76552055 369.65204933 -724.8125 365.8125 C-717.16226971 362.08330518 -709.57242882 358.27803381 -702.05078125 354.296875 C-692.2066276 349.08666403 -682.29489037 344.01447205 -672.36914062 338.96179199 C-667.18992196 336.32509502 -662.01294006 333.68401359 -656.8359375 331.04296875 C-655.81119324 330.52026398 -654.78644897 329.9975592 -653.73065186 329.45901489 C-645.14298082 325.07685339 -636.56761426 320.67122391 -628 316.25 C-616.21710196 310.17031873 -604.4244765 304.10994808 -592.625 298.0625 C-580.24532776 291.71738725 -567.86950419 285.36491271 -555.5 279 C-543.25461528 272.69931937 -531.00440019 266.40812864 -518.75 260.125 C-517.53479675 259.50192963 -517.53479675 259.50192963 -516.29504395 258.86627197 C-509.70388217 255.4868982 -503.1124443 252.10806309 -496.52099609 248.72924805 C-490.76386905 245.77808233 -485.00685006 242.826706 -479.25 239.875 C-478.03431335 239.25168793 -478.03431335 239.25168793 -476.79406738 238.61578369 C-464.64208756 232.38475232 -452.49554511 226.14322015 -440.35241699 219.8949585 C-427.91451747 213.49524789 -415.46911501 207.11025163 -403.02148438 200.72949219 C-391.509863 194.8283098 -380.00259348 188.91875943 -368.5 183 C-355.34636841 176.23168456 -342.18554485 169.47749955 -329.02148438 162.72949219 C-317.509863 156.8283098 -306.00259348 150.91875943 -294.5 145 C-281.34636841 138.23168456 -268.18554485 131.47749955 -255.02148438 124.72949219 C-243.509863 118.8283098 -232.00259348 112.91875943 -220.5 107 C-207.34636841 100.23168456 -194.18554485 93.47749955 -181.02148438 86.72949219 C-169.50986288 80.82830974 -158.00262839 74.91869173 -146.5 69 C-134.25459675 62.6993553 -122.00440025 56.40812868 -109.75 50.125 C-108.53479675 49.50192963 -108.53479675 49.50192963 -107.29504395 48.86627197 C-100.70388217 45.4868982 -94.1124443 42.10806309 -87.52099609 38.72924805 C-82.57909308 36.195975 -77.63730176 33.66248426 -72.69561768 31.12878418 C-70.27034193 29.88542861 -67.84489332 28.6424107 -65.41943359 27.39941406 C-57.25572351 23.21470823 -49.09688981 19.02079503 -40.9453125 14.8125 C-39.32000592 13.97408438 -37.69468072 13.13570484 -36.06933594 12.29736328 C-33.01140601 10.72008954 -29.95499477 9.13992444 -26.89941406 7.55810547 C-25.5241487 6.8485162 -24.14882641 6.13903726 -22.7734375 5.4296875 C-22.15759796 5.10983887 -21.54175842 4.78999023 -20.90725708 4.46044922 C-13.78107352 0.79277131 -8.08349053 -1.28883625 0 0 Z M-80.65234375 74.7109375 C-81.82345703 75.29746094 -82.99457031 75.88398438 -84.20117188 76.48828125 C-84.81790771 76.79975098 -85.43464355 77.1112207 -86.07006836 77.43212891 C-87.86939261 78.3406124 -89.67194189 79.24269981 -91.47460938 80.14453125 C-98.36798639 83.60174516 -105.20956387 87.15005258 -112.02734375 90.75390625 C-121.84704922 95.94374214 -131.7328574 100.99965288 -141.63085938 106.03820801 C-146.81007804 108.67490498 -151.98705994 111.31598641 -157.1640625 113.95703125 C-158.70117889 114.74108841 -158.70117889 114.74108841 -160.26934814 115.54098511 C-168.85701918 119.92314661 -177.43238574 124.32877609 -186 128.75 C-197.78289804 134.82968127 -209.5755235 140.89005192 -221.375 146.9375 C-233.7546721 153.28261268 -246.13053343 159.63501435 -258.5 166 C-271.65427893 172.76869755 -284.81574676 179.52327192 -297.98052979 186.27151489 C-309.45009003 192.15099637 -320.91483295 198.03973227 -332.375 203.9375 C-345.94843146 210.92273027 -359.53311012 217.88582054 -373.12145996 224.84197998 C-385.67474 231.26858685 -398.22115165 237.70834759 -410.76074219 244.16162109 C-422.33521786 250.11806095 -433.91601702 256.06207216 -445.5 262 C-457.83790162 268.32447696 -470.17188736 274.65646251 -482.5 281 C-495.65363159 287.76831544 -508.81445515 294.52250045 -521.97851562 301.27050781 C-534.20552751 307.53841959 -546.42711579 313.81677216 -558.64447021 320.10348511 C-570.29922463 326.10041974 -581.96079136 332.08397731 -593.625 338.0625 C-611.09591078 347.01729697 -628.55177952 356.00107985 -646 365 C-644.3077233 369.40867746 -642.13066294 373.32149373 -639.625 377.3125 C-638.97059937 378.35603638 -638.97059937 378.35603638 -638.30297852 379.4206543 C-628.54421621 394.73226073 -616.97960023 408.86251233 -604.6328125 422.14453125 C-602.31068635 424.66303899 -600.05461464 427.22307741 -597.8125 429.8125 C-594.82047973 433.19136733 -591.67792805 436.17078988 -588.23046875 439.078125 C-585.59592096 441.34817319 -583.0912456 443.73769856 -580.5625 446.125 C-524.02854087 498.4911006 -444.71829386 525.58655914 -368.4375 525.3125 C-366.85435501 525.30976578 -366.85435501 525.30976578 -365.23922729 525.30697632 C-349.30325183 525.26069244 -333.73140358 524.76013158 -318 522 C-316.98647461 521.82839355 -315.97294922 521.65678711 -314.92871094 521.47998047 C-259.85125495 511.94242658 -207.03614511 488.91246022 -164 453 C-163.43216797 452.53223145 -162.86433594 452.06446289 -162.27929688 451.58251953 C-156.46935552 446.79398259 -150.76554899 441.9715189 -145.5390625 436.5390625 C-143.93472396 434.93472396 -142.25071305 433.50471736 -140.5 432.0625 C-137.32280608 429.38437858 -134.66588637 426.45704275 -131.984375 423.2890625 C-130.57645523 421.66496607 -129.12321609 420.07966722 -127.640625 418.5234375 C-85.02209112 373.76136789 -59.24486551 313.31763843 -49 253 C-48.75443359 251.65905273 -48.75443359 251.65905273 -48.50390625 250.29101562 C-42.93141465 219.04361439 -43.36845491 183.20150689 -49 152 C-49.25740967 150.53264404 -49.25740967 150.53264404 -49.52001953 149.03564453 C-54.30553462 122.48223685 -62.18302335 96.7147378 -73 72 C-75.98170709 72 -77.99465997 73.37685383 -80.65234375 74.7109375 Z " fill="#000000" transform="translate(1306,388)"/>
<path d="M0 0 C85.27556514 -2.05071499 178.89376194 27.21917832 241.45605469 86.76953125 C245.05541204 90.59669603 246.46361585 93.71484973 247.05371094 98.94140625 C246.86127658 103.50734868 245.31085983 107.39118312 242.61621094 111.06640625 C238.98003839 114.24472082 235.13481718 116.53418982 230.84277344 118.69140625 C230.17962128 119.03059082 229.51646912 119.36977539 228.83322144 119.71923828 C226.63853953 120.84025534 224.43988775 121.95324786 222.24121094 123.06640625 C220.67906447 123.86269787 219.11722161 124.65958534 217.55566406 125.45703125 C214.25979491 127.13934729 210.96246836 128.81875696 207.6640625 130.49609375 C200.28677123 134.24965841 192.92424593 138.03199375 185.56048584 141.81201172 C183.09779235 143.07585861 180.63466664 144.33885901 178.17138672 145.6015625 C167.48184368 151.08114387 156.79729704 156.57036058 146.11621094 162.06640625 C132.96257934 168.83472169 119.80175579 175.5889067 106.63769531 182.33691406 C95.12607394 188.23809645 83.61880442 194.14764682 72.11621094 200.06640625 C58.96257934 206.83472169 45.80175579 213.5889067 32.63769531 220.33691406 C21.12607394 226.23809645 9.61880442 232.14764682 -1.88378906 238.06640625 C-15.03808796 244.83506506 -28.19953575 251.58967814 -41.36431885 258.33792114 C-52.8338791 264.21740262 -64.29862201 270.10613852 -75.75878906 276.00390625 C-89.33222053 282.98913652 -102.91689918 289.95222679 -116.50524902 296.90838623 C-129.05852906 303.3349931 -141.60494071 309.77475384 -154.14453125 316.22802734 C-165.71900692 322.1844672 -177.29980608 328.12847841 -188.88378906 334.06640625 C-201.22169068 340.39088321 -213.55567642 346.72286876 -225.88378906 353.06640625 C-239.83950238 360.24743981 -253.80261113 367.41395781 -267.77099609 374.5703125 C-275.95795166 378.76554413 -284.14012977 382.96971574 -292.31347656 387.19140625 C-293.91827249 388.01957345 -295.52308984 388.84769915 -297.12792969 389.67578125 C-300.13063894 391.22516296 -303.13169315 392.77768711 -306.13183594 394.33203125 C-328.04479862 405.65873673 -328.04479862 405.65873673 -336.94628906 403.00390625 C-341.58935179 400.38690726 -345.35297454 397.41099763 -346.97265625 392.15576172 C-348.31760597 386.60206789 -348.79143414 381.13791639 -349.00878906 375.44140625 C-349.04746094 374.65378906 -349.08613281 373.86617187 -349.12597656 373.0546875 C-353.30840064 278.80077355 -319.23039718 187.01000321 -256.38378906 117.06640625 C-252.53209451 112.94127057 -248.55224439 108.94458223 -244.54711914 104.96899414 C-242.81124175 103.24392148 -241.08643816 101.50828634 -239.36230469 99.77148438 C-232.69034629 93.09069107 -225.82878981 86.89252117 -218.38378906 81.06640625 C-217.62445068 80.45837158 -216.8651123 79.85033691 -216.08276367 79.22387695 C-206.18755176 71.30483059 -196.1146124 63.81474621 -185.38378906 57.06640625 C-184.51802246 56.52089111 -184.51802246 56.52089111 -183.63476562 55.96435547 C-179.27136102 53.23753315 -174.84529441 50.62907719 -170.38378906 48.06640625 C-169.59149902 47.61007812 -168.79920898 47.15375 -167.98291016 46.68359375 C-116.61913634 17.32725922 -59.08531928 1.64596547 0 0 Z M-41.38378906 39.06640625 C-42.41938965 39.2380127 -43.45499023 39.40961914 -44.52197266 39.58642578 C-99.55960958 48.75526838 -152.46487069 72.25176847 -195.38378906 108.06640625 C-195.95162109 108.5341748 -196.51945312 109.00194336 -197.10449219 109.48388672 C-202.91443355 114.27242366 -208.61824007 119.09488735 -213.84472656 124.52734375 C-215.44906511 126.13168229 -217.13307601 127.56168889 -218.88378906 129.00390625 C-222.06098298 131.68202767 -224.71790269 134.6093635 -227.39941406 137.77734375 C-228.80733383 139.40144018 -230.26057297 140.98673903 -231.74316406 142.54296875 C-284.71875987 198.1830176 -315.27461506 279.95608089 -313.43139648 356.38354492 C-313.41568604 356.93888916 -313.39997559 357.4942334 -313.38378906 358.06640625 C-312.55363281 357.65132812 -311.72347656 357.23625 -310.86816406 356.80859375 C-310.29090576 356.52000488 -309.71364746 356.23141602 -309.11889648 355.93408203 C-307.75695078 355.25302543 -306.39514145 354.57169607 -305.03344727 353.89013672 C-300.27709509 351.5101951 -295.51721971 349.13747663 -290.75488281 346.76953125 C-279.48568971 341.15974988 -268.23757537 335.52580603 -257.12280273 329.61376953 C-250.86832323 326.29523314 -244.55047326 323.11440594 -238.19628906 319.99121094 C-232.63924565 317.24404407 -227.15285731 314.3732552 -221.67285156 311.4765625 C-211.74717351 306.23293458 -201.75682616 301.12065872 -191.75292969 296.02819824 C-186.57371103 293.39150127 -181.39672912 290.75041984 -176.21972656 288.109375 C-174.68261017 287.32531784 -174.68261017 287.32531784 -173.11444092 286.52542114 C-164.52676988 282.14325964 -155.95140333 277.73763016 -147.38378906 273.31640625 C-135.60089102 267.23672498 -123.80826557 261.17635433 -112.00878906 255.12890625 C-99.62911696 248.78379357 -87.25325564 242.4313919 -74.88378906 236.06640625 C-61.73017744 229.29805207 -48.56933384 222.54390576 -35.40527344 215.79589844 C-23.89365207 209.89471605 -12.38638255 203.98516568 -0.88378906 198.06640625 C12.26984253 191.29809081 25.43066609 184.5439058 38.59472656 177.79589844 C50.10634793 171.89471605 61.61361745 165.98516568 73.11621094 160.06640625 C85.44432382 153.72286864 97.77837922 147.39101988 110.11621094 141.06640625 C138.63913496 126.44414433 167.13881978 111.77714472 195.61621094 97.06640625 C194.42526344 93.49356377 193.57987491 93.10718718 190.47949219 91.1328125 C189.60365479 90.57239258 188.72781738 90.01197266 187.82543945 89.43457031 C186.39155884 88.5407666 186.39155884 88.5407666 184.92871094 87.62890625 C183.93991943 87.00854492 182.95112793 86.38818359 181.93237305 85.74902344 C164.50757323 74.93220245 146.63066109 65.75493278 127.61621094 58.06640625 C126.80619629 57.73801758 125.99618164 57.40962891 125.16162109 57.07128906 C103.40291547 48.37507637 80.70155993 42.85409639 57.61621094 39.06640625 C56.18075928 38.81866455 56.18075928 38.81866455 54.71630859 38.56591797 C23.85365672 33.41770607 -10.58981858 33.57418079 -41.38378906 39.06640625 Z " fill="#000000" transform="translate(929.3837890625,232.93359375)"/>
<path d="M0 0 C5.08679012 2.90673721 8.21012479 5.63009151 10.1875 11.25 C10.92140797 16.66480883 10.90612256 21.75530736 7.73046875 26.4375 C-1.34228423 37.09511363 -13.5813268 45.06408422 -24.8125 53.25 C-25.90788086 54.05123291 -25.90788086 54.05123291 -27.02539062 54.86865234 C-98.76621834 107.12784479 -183.9759954 141.32242064 -427.57080078 152.93359375 C-517.03302775 138.83321668 -600.60923985 104.87439772 -685.8125 40.25 C-687.57053995 34.97588015 -687.85088787 29.18077699 -685.9765625 23.890625 C-683.0962392 18.74857132 -679.46060641 15.90161234 -673.8125 14.25 C-667.44432375 12.93958106 -663.17016958 14.60289953 -657.8515625 18.09375 C-653.17771613 21.40989807 -648.53543688 24.7686738 -643.90722656 28.14819336 C-631.37323974 37.26699182 -618.21856849 45.478807 -604.8125 53.25 C-603.83071777 53.81920166 -603.83071777 53.81920166 -602.82910156 54.39990234 C-535.87745457 92.93956511 -460.80437511 115.62803061 -383.8125 121.25 C-383.07999023 121.30784668 -382.34748047 121.36569336 -381.59277344 121.42529297 C-293.67064173 128.21176992 -204.05578674 109.39727904 -51.8125 28.25 C-51.04663574 27.7019873 -50.28077148 27.15397461 -49.49169922 26.58935547 C-40.22702816 19.92764236 -31.20268816 13.14019434 -22.671875 5.5546875 C-15.43450125 -0.27871484 -9.17579465 -2.44687857 0 0 Z " fill="#000000" transform="translate(1285.8125,979.75)"/>
<path d="M0 0 C1.74177521 -0.00101212 1.74177521 -0.00101212 3.51873779 -0.00204468 C92.46923585 0.07943553 180.06530447 20.45999791 269.68994141 64.12646484 C271.27866924 64.94337272 272.86981884 65.75557598 274.46240234 66.56494141 C288.27900764 73.59012969 301.73037742 81.03311036 314.875 89.25 C315.51630859 89.64735352 316.15761719 90.04470703 316.81835938 90.45410156 C330.43936396 98.94309188 330.43936396 98.94309188 332.875 106.25 C333.38212636 111.54572939 333.56906829 115.88665157 331.125 120.6875 C330.3825 121.533125 329.64 122.37875 328.875 123.25 C328.235625 123.9925 327.59625 124.735 326.9375 125.5 C322.51043704 129.25629585 318.56796716 129.59538922 312.875 129.25 C309.69140625 128.0703125 309.69140625 128.0703125 306.4375 126.375 C305.83679687 126.06328857 305.23609375 125.75157715 304.6171875 125.43041992 C299.37616799 122.65119372 294.39210991 119.49328637 289.3984375 116.29760742 C280.99953368 110.97159476 272.23015593 106.32497035 263.46289062 101.64013672 C261.17909311 100.41334964 258.90767913 99.16750942 256.640625 97.91015625 C235.68702823 86.38670921 213.33857815 77.36080421 190.875 69.25 C189.65167969 68.8080127 188.42835938 68.36602539 187.16796875 67.91064453 C113.11798924 41.38000089 33.18873922 31.33941206 -233.125 88.25 C-234.10065918 88.69456543 -235.07631836 89.13913086 -236.08154297 89.59716797 C-250.88608604 96.3855805 -265.07072971 104.02953045 -279.125 112.25 C-279.9819043 112.74612793 -280.83880859 113.24225586 -281.72167969 113.75341797 C-292.69970048 120.1186284 -303.28685846 126.92822535 -313.70532227 134.17529297 C-329.62720154 145.23581214 -329.62720154 145.23581214 -337.390625 143.84375 C-343.92371644 142.02659874 -346.80617166 139.19364116 -350.234375 133.36328125 C-352.27746139 128.51543153 -351.66598708 122.97439633 -350.125 118.0625 C-344.25193108 109.80349683 -335.00193328 104.61151357 -326.625 99.1875 C-325.9877298 98.77270386 -325.35045959 98.35790771 -324.69387817 97.93054199 C-250.95405725 49.98158631 -167.4479812 17.18461174 0 0 Z " fill="#000000" transform="translate(936.125,-0.25)"/>
<path d="M0 0 C0.67944672 0.20160736 1.35889343 0.40321472 2.05892944 0.6109314 C10.91424111 3.26162126 18.61510933 5.97142787 24.5 13.375 C26.97891586 19.35356177 26.79351987 23.91374635 24.5625 29.9375 C22.45874666 34.46056968 19.99224411 36.64059564 15.5625 38.9375 C7.27321731 41.24762796 0.17507283 38.32115236 -7.72412109 35.796875 C-102.67838616 5.72318299 -203.04141453 12.62800704 -300.99609375 60.02734375 C-322.00491309 71.13541162 -341.87061066 84.10891052 -360.4375 98.9375 C-361.36691406 99.67355469 -362.29632812 100.40960938 -363.25390625 101.16796875 C-369.23953023 105.97860538 -374.93197618 111.04594692 -380.55078125 116.2734375 C-383.0579648 118.58723883 -385.61104394 120.82698201 -388.1875 123.0625 C-399.23595612 132.98647674 -409.30711299 144.24446656 -418.4375 155.9375 C-419.51377254 157.28429418 -420.59064621 158.63060808 -421.66796875 159.9765625 C-429.84799749 170.26519575 -437.38775577 180.84486377 -444.4375 191.9375 C-444.83243652 192.55625 -445.22737305 193.175 -445.63427734 193.8125 C-454.31686644 207.53016349 -461.84220202 222.05925144 -468.625 236.796875 C-469.14860107 237.92625488 -469.67220215 239.05563477 -470.21166992 240.21923828 C-471.21377268 242.39711404 -472.19921941 244.58275577 -473.1652832 246.77685547 C-476.04739261 253.04284065 -478.35810918 256.55926876 -484.4375 259.9375 C-489.77903735 261.71801245 -494.50838389 261.64259123 -499.625 259.375 C-503.77032928 257.04937235 -506.39307571 254.2281587 -508.4375 249.9375 C-511.41511497 238.58534291 -504.84202386 228.0319411 -499.9375 218.0625 C-499.62725891 217.42677063 -499.31701782 216.79104126 -498.99737549 216.13604736 C-483.81105474 185.02828552 -465.69307828 156.4748212 -443.4375 129.9375 C-442.9017334 129.29731934 -442.3659668 128.65713867 -441.81396484 127.99755859 C-436.74092391 121.95500998 -431.67264277 115.95631312 -425.98046875 110.48046875 C-424.3545203 108.8545203 -422.90824922 107.14212186 -421.4375 105.375 C-415.6587527 98.69332343 -408.97543703 92.85852896 -402.4375 86.9375 C-401.83373535 86.38900391 -401.2299707 85.84050781 -400.60791016 85.27539062 C-324.25659172 16.33457959 -220.91296129 -20.56113615 0 0 Z " fill="#000000" transform="translate(1063.4375,195.0625)"/>
<path d="M0 0 C11.39648442 9.18954092 20.3610573 19.54605684 27.51953125 32.36328125 C28.06480469 33.31847656 28.61007812 34.27367187 29.171875 35.2578125 C42.13901583 59.37735436 43.98555834 88.59183971 36.30078125 114.640625 C31.20527731 130.71570494 22.91135103 144.03351224 11.51953125 156.36328125 C10.8646875 157.09933594 10.20984375 157.83539062 9.53515625 158.59375 C-7.54220474 176.87528388 -32.91147234 187.62382931 -57.66015625 188.80078125 C-71.08172949 189.15210402 -83.70322692 188.61769693 -96.48046875 184.36328125 C-97.58519531 184.01265625 -98.68992187 183.66203125 -99.828125 183.30078125 C-126.80421439 173.86078885 -147.72979477 154.17820037 -160.39306641 128.74926758 C-172.62417375 103.11570702 -173.53256637 74.23537185 -164.27832031 47.49072266 C-154.7492336 22.08176866 -135.96623568 0.30682771 -111.48046875 -11.63671875 C-74.45264391 -27.82799415 -32.39030721 -25.11282542 0 0 Z M-119.08203125 38.28125 C-132.41312761 55.15690209 -136.112144 73.34415868 -134.48046875 94.36328125 C-132.37435389 111.249345 -122.92561248 126.93558659 -109.89599609 137.66845703 C-93.62309455 150.3175406 -75.87216429 155.12374592 -55.48046875 153.36328125 C-36.30810159 150.9187721 -20.90909419 140.65327679 -8.66796875 126.05078125 C2.72770115 110.47577031 7.52016014 91.81917529 4.765625 72.72021484 C1.65006241 54.50647198 -7.59423043 38.05729962 -22.63671875 27.0546875 C-53.98490249 5.50722393 -93.66480724 9.77274199 -119.08203125 38.28125 Z " fill="#000000" transform="translate(1826.48046875,784.63671875)"/>
<path d="M0 0 C4.22481756 4.09853225 5.35191121 8.4173005 5.59863281 14.11694336 C5.61851241 15.63518828 5.63207375 17.15352401 5.640625 18.671875 C5.64763931 19.49764542 5.65465363 20.32341583 5.66188049 21.17420959 C5.67957122 23.89353796 5.68575316 26.61264708 5.6875 29.33203125 C5.68817474 30.26813232 5.68884949 31.2042334 5.68954468 32.16870117 C5.59751615 113.11940131 -14.20969157 192.49263782 -121.5625 378.39453125 C-122.30814209 379.28881836 -122.30814209 379.28881836 -123.06884766 380.20117188 C-128.83212845 387.09052367 -134.7731752 393.80312915 -140.875 400.39453125 C-141.71889282 401.31117554 -141.71889282 401.31117554 -142.57983398 402.24633789 C-153.639287 414.07098198 -153.639287 414.07098198 -161.2265625 415.33984375 C-166.91999227 415.47313475 -171.22479346 413.5330049 -175.5 409.89453125 C-179.52064178 405.02102606 -180.44505776 401.58694042 -180.5625 395.39453125 C-178.97272766 386.73910407 -171.81021704 380.50003478 -165.77734375 374.59765625 C-162.51421701 371.35179473 -159.5412396 367.8999992 -156.5625 364.39453125 C-155.76328125 363.47285156 -154.9640625 362.55117188 -154.140625 361.6015625 C-146.56520921 352.82083996 -139.49692145 343.68686084 -132.5625 334.39453125 C-132.02866699 333.68167969 -131.49483398 332.96882813 -130.94482422 332.234375 C-117.0147616 313.55359739 -104.7629826 293.81850102 -93.5625 273.39453125 C-93.07571777 272.50749512 -92.58893555 271.62045898 -92.08740234 270.70654297 C-78.73959357 246.18791565 -67.69592504 220.76348376 -58.5625 194.39453125 C-58.21380859 193.39631348 -57.86511719 192.3980957 -57.50585938 191.36962891 C-45.17071127 155.67906892 -37.311487 118.46397657 -33.25 80.95703125 C-33.12762466 79.82770676 -33.12762466 79.82770676 -33.0027771 78.67556763 C-31.48447947 64.40451065 -30.58392961 50.13997994 -30.38671875 35.7890625 C-30.37466904 34.99840897 -30.36261932 34.20775543 -30.35020447 33.3931427 C-30.30210476 30.17604615 -30.25409814 26.95937443 -30.23657227 23.74194336 C-30.22107217 21.34038267 -30.18096688 18.94024346 -30.13671875 16.5390625 C-30.13862717 15.82232864 -30.14053558 15.10559479 -30.14250183 14.36714172 C-29.99537649 8.28136356 -28.02936613 4.20839901 -24.03515625 -0.34765625 C-16.59961183 -6.32080827 -7.40656174 -5.94925214 0 0 Z " fill="#000000" transform="translate(1479.5625,563.60546875)"/>
<path d="M0 0 C3.47115276 2.37231824 5.98482205 5.24622396 7.67578125 9.1484375 C8.2118076 15.22340277 8.40817226 19.22390298 5.32421875 24.53515625 C1.36002776 29.25190757 -3.5540058 32.27789178 -9.0078125 34.99609375 C-10.00041832 35.50274818 -10.00041832 35.50274818 -11.01307678 36.01963806 C-13.19659161 37.13218041 -15.38536502 38.23394166 -17.57421875 39.3359375 C-19.13191513 40.12745925 -20.68919828 40.91979468 -22.24609375 41.71289062 C-25.53066402 43.38509682 -28.81713035 45.05349059 -32.10498047 46.71923828 C-39.48065838 50.45909655 -46.83519927 54.24012983 -54.19143677 58.01803589 C-57.47727464 59.70497678 -60.76421712 61.38975945 -64.0511322 63.07460022 C-73.91744631 68.13223569 -83.77819037 73.20064606 -93.63671875 78.2734375 C-106.79101765 85.04209631 -119.95246544 91.79670939 -133.11724854 98.54495239 C-144.58680878 104.42443387 -156.0515517 110.31316977 -167.51171875 116.2109375 C-181.08515021 123.19616777 -194.66982887 130.15925804 -208.25817871 137.11541748 C-220.81145875 143.54202435 -233.3578704 149.98178509 -245.89746094 156.43505859 C-257.47193665 162.39149847 -269.05274887 168.33548405 -280.63671875 174.2734375 C-292.29934627 180.25188474 -303.95936402 186.23533283 -315.61328125 192.23074341 C-317.74337314 193.32650019 -319.87361842 194.4219582 -322.00390625 195.51733398 C-328.94376137 199.08604545 -335.88233033 202.65721866 -342.81820679 206.23365784 C-346.25697076 208.00636733 -349.69661658 209.77736119 -353.13641357 211.54806519 C-354.79213014 212.40090169 -356.4474501 213.25450864 -358.10235596 214.10891724 C-360.3940604 215.29201206 -362.68710497 216.47246949 -364.98046875 217.65234375 C-365.66309784 218.00558716 -366.34572693 218.35883057 -367.04904175 218.72277832 C-373.62420627 222.098739 -378.41673645 223.3829059 -385.69921875 221.2109375 C-390.69799006 218.39344822 -394.3045504 214.76994254 -396.13671875 209.2734375 C-396.90275809 203.11229249 -396.54815885 198.16807567 -392.8359375 193.0625 C-386.71947994 186.62264353 -377.28855531 183.26172919 -369.41186523 179.40283203 C-363.68107112 176.58969234 -358.02586292 173.64796138 -352.3828125 170.6640625 C-342.50950903 165.44597791 -332.57195548 160.35871091 -322.62011719 155.2923584 C-317.44712927 152.6586641 -312.27636082 150.02061869 -307.10546875 147.3828125 C-306.07623291 146.85786194 -305.04699707 146.33291138 -303.98657227 145.79205322 C-295.02712559 141.22091791 -286.07893679 136.62816827 -277.13671875 132.0234375 C-274.33465514 130.58069086 -271.53257962 129.13796735 -268.73046875 127.6953125 C-267.69043701 127.15982788 -267.69043701 127.15982788 -266.62939453 126.61352539 C-257.97046115 122.1565163 -249.30326167 117.71562575 -240.63671875 113.2734375 C-228.29877526 106.9490424 -215.96483125 100.61697491 -203.63671875 94.2734375 C-190.48308716 87.50512206 -177.3222636 80.75093705 -164.15820312 74.00292969 C-152.64658175 68.1017473 -141.13931223 62.19219693 -129.63671875 56.2734375 C-118.13230487 50.35374137 -106.62319894 44.44328663 -95.10974121 38.54119873 C-87.78491437 34.78622617 -80.46066278 31.03013164 -73.13671875 27.2734375 C-72.33935303 26.86444214 -71.5419873 26.45544678 -70.72045898 26.03405762 C-66.02385688 23.62475554 -61.32783388 21.21433017 -56.63265991 18.80224609 C-55.14579225 18.03839675 -53.65883469 17.27472236 -52.17178345 16.51123047 C-42.95382639 11.77734579 -33.74682057 7.02511082 -24.63574219 2.08740234 C-16.11732638 -2.47319423 -8.86048752 -4.8517621 0 0 Z " fill="#000000" transform="translate(1213.13671875,377.7265625)"/>
<path d="M0 0 C0.82371094 0.63679687 1.64742187 1.27359375 2.49609375 1.9296875 C17.25878031 14.135965 26.24276942 34.40480287 29 53 C31.1186494 78.68102391 25.07524073 99.83840606 9 120 C8.36835938 120.83273437 7.73671875 121.66546875 7.0859375 122.5234375 C-5.76659894 137.78281597 -26.54555699 146.89257595 -45.953125 149.5390625 C-70.37135002 151.59785402 -93.03659155 144.77409703 -111.8359375 128.9140625 C-112.55007812 128.28242187 -113.26421875 127.65078125 -114 127 C-114.61101562 126.47148438 -115.22203125 125.94296875 -115.8515625 125.3984375 C-131.31702317 111.0628735 -139.96234057 89.38079547 -141.203125 68.59765625 C-141.54518601 42.80055479 -132.28671724 20.97747482 -114.5625 2.25 C-83.4265721 -27.54142192 -32.09304103 -28.71482618 0 0 Z M-93.44140625 31.05078125 C-102.46739979 42.33892856 -106.24732314 55.11778187 -105.921875 69.4375 C-104.44252721 82.55867174 -97.77087633 94.24692328 -88 103 C-75.63878942 112.77967727 -62.32400263 115.22773908 -47 114 C-34.4462802 111.96653267 -22.89637487 104.47882118 -15.375 94.375 C-7.02813538 81.94869929 -3.81698225 68.23942283 -6.68359375 53.48046875 C-10.72446051 39.34581862 -18.41831328 28.63443225 -31 21 C-51.9989645 10.06479626 -76.90109977 13.39985467 -93.44140625 31.05078125 Z " fill="#000000" transform="translate(205,608)"/>
<path d="M0 0 C4.33133121 2.32608528 7.20179745 4.80129562 9.6875 9.0625 C10.99404629 14.28868516 11.04314677 18.9838878 9.1875 24.0625 C7.18868494 27.09518492 4.97534626 29.26922581 2.375 31.8125 C-8.01403474 41.94216091 -8.01403474 41.94216091 -17.765625 52.671875 C-19.87741369 55.10309391 -22.07218153 57.44390833 -24.27709961 59.79052734 C-30.34842515 66.25502218 -36.10191261 72.86865247 -41.625 79.8125 C-42.54441877 80.94104542 -43.46506036 82.06859538 -44.38671875 83.1953125 C-83.28429722 130.94233177 -114.90095611 186.30079805 -135.0234375 244.52734375 C-135.31281189 245.36279724 -135.60218628 246.19825073 -135.90032959 247.059021 C-137.33049502 251.19928856 -138.74143719 255.34473987 -140.12304688 259.50146484 C-140.64170531 261.02839566 -141.16057571 262.5552545 -141.6796875 264.08203125 C-141.90328949 264.77465561 -142.12689148 265.46727997 -142.35726929 266.18089294 C-144.37644984 272.05623353 -147.18767205 276.11203864 -152.3125 279.6875 C-157.58595379 281.47848431 -162.62053507 281.97004214 -167.90625 279.93359375 C-172.54729313 277.310019 -176.08950242 274.04883166 -177.625 268.8125 C-178.86106068 259.10182377 -176.09788114 250.72763491 -172.8125 241.75 C-172.30969825 240.33800084 -171.80767694 238.92572355 -171.30639648 237.51318359 C-148.4369983 173.59806659 -115.50895953 112.89604015 -72.07373047 60.56542969 C-70.00505961 58.06238676 -67.97517785 55.52829624 -65.9375 53 C-62.10165086 48.31252196 -58.0701171 43.83080623 -53.96875 39.375 C-51.93886333 37.15565724 -49.96004502 34.90577966 -48 32.625 C-45.01357303 29.18289755 -41.82701294 25.99386768 -38.578125 22.80078125 C-36.74301329 20.93263753 -35.05754182 19.00516513 -33.375 17 C-30.31063822 13.45771023 -27.0356975 10.20400458 -23.625 7 C-22.89555176 6.29750122 -22.89555176 6.29750122 -22.15136719 5.58081055 C-15.57003573 -0.49012746 -8.74215493 -2.86380937 0 0 Z " fill="#000000" transform="translate(550.625,158.1875)"/>
<path d="M0 0 C4.83377644 2.41688822 8.9476096 5.92938842 11 11 C12.18234722 16.63888675 12.2608429 20.55342391 10 26 C2.28287772 35.5879398 -10.58477011 40.46097819 -21.375 45.75 C-24.44698936 47.26224386 -27.51711629 48.77821274 -30.5859375 50.296875 C-31.36021088 50.67985245 -32.13448425 51.0628299 -32.93222046 51.45741272 C-39.2112916 54.57720355 -45.41715398 57.82484858 -51.61248779 61.10710144 C-60.56977377 65.84646904 -69.59998293 70.44106114 -78.63085938 75.03820801 C-83.81007804 77.67490498 -88.98705994 80.31598641 -94.1640625 82.95703125 C-95.18880676 83.47973602 -96.21355103 84.0024408 -97.26934814 84.54098511 C-105.85701922 88.92314663 -114.43238431 93.32877873 -123 97.75 C-125.57676475 99.07953986 -128.15356916 100.40900275 -130.73046875 101.73828125 C-131.37480362 102.07065796 -132.01913849 102.40303467 -132.68299866 102.7454834 C-141.88550481 107.49041297 -151.09941456 112.21315589 -160.3125 116.9375 C-161.17399658 117.37936646 -162.03549316 117.82123291 -162.9230957 118.27648926 C-165.36136045 119.52702868 -167.79978544 120.77725497 -170.23828125 122.02734375 C-170.96582108 122.40046188 -171.6933609 122.77358002 -172.44294739 123.15800476 C-174.29451616 124.10686421 -176.14719346 125.05355977 -178 126 C-178.76223877 126.40500732 -179.52447754 126.81001465 -180.30981445 127.22729492 C-184.45438041 129.12207338 -189.57646818 128.48030305 -194 128 C-198.47870656 125.84062362 -201.18198188 123.07047061 -204 119 C-205.9040645 113.2878065 -205.99067882 107.18774905 -203.5 101.6875 C-196.797697 94.48252427 -188.44995322 90.49035884 -179.6875 86.25 C-177.3569258 85.11172068 -175.02752289 83.97104046 -172.69921875 82.828125 C-172.09394348 82.53119247 -171.48866821 82.23425995 -170.86505127 81.92832947 C-165.04896832 79.05800413 -159.32019674 76.02928108 -153.5884552 72.99494934 C-144.56274668 68.2242775 -135.46697156 63.59302189 -126.36914062 58.96179199 C-121.18992196 56.32509502 -116.01294006 53.68401359 -110.8359375 51.04296875 C-109.81119324 50.52026398 -108.78644897 49.9975592 -107.73065186 49.45901489 C-99.14297979 45.07685286 -90.56769542 40.67106813 -82 36.25 C-79.41021144 34.9139555 -76.820369 33.57801548 -74.23046875 32.2421875 C-73.58406937 31.90877853 -72.93766998 31.57536957 -72.27168274 31.2318573 C-64.14983403 27.04404162 -56.02103911 22.86975348 -47.89086914 18.69812012 C-46.20420558 17.83258909 -44.51767663 16.96679567 -42.83129883 16.10070801 C-34.91424964 12.03494753 -26.99353639 7.97648184 -19.04296875 3.9765625 C-17.94364014 3.42307129 -16.84431152 2.86958008 -15.71166992 2.29931641 C-10.45871455 -0.21767545 -5.75730331 -0.90277241 0 0 Z " fill="#000000" transform="translate(795,588)"/>
<path d="M0 0 C4.70760721 3.876853 6.83037167 7.46922653 7.9375 13.41015625 C8.32751348 18.27719942 7.05364261 22.12487544 4.625 26.375 C-1.69177759 32.37593871 -10.24804447 36.0888702 -17.97265625 39.98828125 C-18.9118541 40.46619614 -19.85105194 40.94411102 -20.81871033 41.43650818 C-22.82064313 42.45472703 -24.82339378 43.47133927 -26.8269043 44.4864502 C-31.06218555 46.63234597 -35.29346268 48.78608303 -39.5249939 50.93936157 C-41.65387907 52.02258766 -43.78296794 53.1054135 -45.91226196 54.18783569 C-54.58177578 58.59582874 -63.23335196 63.03768016 -71.875 67.5 C-74.49203277 68.85056044 -77.10924948 70.20076401 -79.7265625 71.55078125 C-80.37734268 71.88648132 -81.02812286 72.2221814 -81.69862366 72.5680542 C-89.37920766 76.52829037 -97.06953171 80.46952828 -104.75970459 84.41110229 C-112.13197464 88.18974981 -119.5035511 91.96975086 -126.875 95.75 C-127.67921387 96.16241943 -128.48342773 96.57483887 -129.31201172 96.99975586 C-134.05033228 99.42994502 -138.78795554 101.86148589 -143.52471924 104.29470825 C-144.97174722 105.0378287 -146.41896208 105.78058542 -147.86639404 106.5229187 C-154.11252477 109.72657451 -160.35495331 112.93455963 -166.55175781 116.23291016 C-167.71470871 116.8518792 -167.71470871 116.8518792 -168.90115356 117.48335266 C-170.39787299 118.28168598 -171.89343476 119.08219459 -173.38766479 119.88517761 C-179.86835113 123.34571054 -184.59597467 124.36416776 -191.875 123.75 C-196.80800979 122.07463818 -200.26016903 119.26474561 -202.875 114.75 C-205.09536103 108.9728521 -205.22901725 104.57899509 -202.875 98.75 C-200.86376602 94.84097458 -199.09653268 92.89447216 -195.26953125 90.74609375 C-194.37572754 90.23933105 -193.48192383 89.73256836 -192.56103516 89.21044922 C-191.67464355 88.72850098 -190.78825195 88.24655273 -189.875 87.75 C-189.13427246 87.34410645 -188.39354492 86.93821289 -187.63037109 86.52001953 C-185.28631704 85.26009704 -182.92731287 84.033012 -180.5625 82.8125 C-179.61938965 82.32289795 -178.6762793 81.8332959 -177.70458984 81.32885742 C-164.84629402 74.67216377 -151.94121411 68.10559851 -139.04516602 61.52246094 C-127.68588061 55.72346036 -116.33426826 49.91024867 -105 44.0625 C-96.4265192 39.63934273 -87.85057428 35.22118123 -79.265625 30.8203125 C-78.0326342 30.18824638 -78.0326342 30.18824638 -76.7747345 29.54341125 C-72.62138279 27.41463533 -68.46753551 25.28683076 -64.31323242 23.15991211 C-56.43850301 19.1266243 -48.57127925 15.07998204 -40.72265625 10.99609375 C-39.28533789 10.24939399 -37.8480011 9.50272971 -36.41064453 8.75610352 C-33.75153854 7.37465485 -31.09542392 5.98767501 -28.44091797 4.59741211 C-27.25108715 3.97879116 -26.06115196 3.36037089 -24.87109375 2.7421875 C-23.85200928 2.20964355 -22.8329248 1.67709961 -21.78295898 1.12841797 C-14.29404135 -2.42144594 -7.74796493 -3.3686804 0 0 Z " fill="#000000" transform="translate(334.875,951.25)"/>
<path d="M0 0 C4.47063306 2.61205527 7.42100497 5.38888494 9.7734375 10.09375 C11.35714475 16.31545706 10.39743595 20.97548079 7.453125 26.62890625 C-7.10320549 47.98947494 -57.49701599 56.32835802 -80.70605469 60.7578125 C-87.85573544 62.03678171 -95.02054622 63.18214553 -102.2265625 64.09375 C-103.01562988 64.1961499 -103.80469727 64.2985498 -104.61767578 64.40405273 C-114.68502671 65.51411431 -124.86083549 65.38137585 -134.9765625 65.40625 C-135.99191071 65.40886841 -137.00725891 65.41148682 -138.05337524 65.41418457 C-151.10638876 65.41778005 -163.96429943 65.03372468 -176.9140625 63.34375 C-178.12094727 63.18688721 -179.32783203 63.03002441 -180.57128906 62.8684082 C-199.04377905 60.11654041 -199.04377905 60.11654041 -204.2890625 54.15625 C-207.5792934 48.95556245 -208.86084536 45.33086483 -208.2265625 39.09375 C-206.17400388 33.4439237 -203.36780082 28.94153725 -198.1015625 25.84375 C-190.64989658 23.89983715 -182.76392792 25.26880219 -175.2890625 26.53125 C-162.56260097 28.6305637 -150.04878315 29.33380848 -137.1640625 29.34375 C-135.97811996 29.34476212 -135.97811996 29.34476212 -134.76821899 29.34579468 C-93.22960545 29.28986555 -54.05570383 19.06942603 -16.66015625 1.22265625 C-11.24340317 -1.29009117 -5.67651544 -2.31044137 0 0 Z " fill="#000000" transform="translate(1074.2265625,826.90625)"/>
<path d="M0 0 C3.4375 1.875 3.4375 1.875 6 4 C6.86625 4.680625 6.86625 4.680625 7.75 5.375 C11.50969172 10.26259923 11.42946317 16.10741383 11 22 C10.32886403 26.19404554 9.4819285 30.34396495 8.60653687 34.49975586 C6.38232414 45.11688491 4.44928488 55.7197673 3.1875 66.5 C3.07623779 67.44552734 2.96497559 68.39105469 2.8503418 69.36523438 C2.53360968 72.24123245 2.26024498 75.11836112 2 78 C1.89921143 79.00683838 1.79842285 80.01367676 1.69458008 81.05102539 C0.97327223 89.5326529 0.99181875 97.9277844 1.11328125 106.43359375 C1.13560066 108.25022018 1.13560066 108.25022018 1.15837097 110.10354614 C1.22177754 115.16774475 1.28585464 120.23128223 1.39770508 125.29467773 C1.47652333 129.02866261 1.51686797 132.761466 1.55078125 136.49609375 C1.58488602 137.63267929 1.61899078 138.76926483 1.65412903 139.94029236 C1.67673708 146.52542025 0.89490159 150.44045207 -3.44441223 155.49427795 C-7.45733815 159.37856603 -11.06395384 160.19475369 -16.5 160.4375 C-22.79615532 160.24955506 -25.95410789 158.15955279 -30.25 153.625 C-37.90407104 142.14389345 -35.24227359 123.95885571 -35.25 110.6875 C-35.25067474 109.64499084 -35.25134949 108.60248169 -35.25204468 107.52838135 C-35.16751112 24.99676769 -35.16751112 24.99676769 -19 4 C-12.72753821 -0.83006024 -7.58004045 -1.52532304 0 0 Z " fill="#000000" transform="translate(559,481)"/>
<path d="M0 0 C10.32072164 7.56708372 11.46282397 25.47290493 13.38916016 37.27441406 C25.38476035 116.07417192 25.38476035 116.07417192 9.94921875 142.65234375 C6.91048301 146.59418039 3.56009231 148.79637548 -1.140625 150.36328125 C-6.75620689 150.73151613 -10.33449446 150.60219531 -15.140625 147.36328125 C-19.82447623 142.62458399 -22.2860884 139.51458072 -22.328125 132.73828125 C-22.28969523 126.91617148 -21.7104303 121.28357941 -20.92700195 115.51904297 C-16.86988474 85.2331138 -19.38047673 54.22496688 -26.24609375 24.53125 C-27.60214939 18.51483437 -28.02048983 12.95399437 -26.015625 7.05078125 C-19.33972664 -2.51800641 -10.41380426 -5.22841826 0 0 Z " fill="#000000" transform="translate(1222.140625,505.63671875)"/>
<path d="M0 0 C4.71032213 2.99196427 7.34519025 6.79106721 9.0078125 12.09375 C9.96786524 17.19093722 9.06813188 21.61460977 6.48681641 26.10253906 C1.71198083 32.53099052 -7.33840358 35.94667446 -14.3671875 39.34375 C-21.21981685 42.6816772 -28.00104139 46.13132913 -34.73828125 49.6953125 C-44.98559889 55.11421776 -55.29985148 60.39813173 -65.62719727 65.66259766 C-68.68774239 67.22285636 -71.74725906 68.78511747 -74.80664062 70.34765625 C-78.7337119 72.35284792 -82.6635475 74.3524551 -86.59570312 76.34765625 C-90.00469914 78.07779261 -93.4042073 79.82417211 -96.79492188 81.58984375 C-98.2187133 82.32298795 -99.64253885 83.05606586 -101.06640625 83.7890625 C-101.68867599 84.11875031 -102.31094574 84.44843811 -102.95207214 84.78811646 C-108.28079397 87.51024423 -113.13426471 88.45488524 -118.9921875 87.09375 C-124.40195566 84.43804563 -127.72147327 80.75619887 -130.3046875 75.34375 C-131.48630524 69.75792066 -130.89872262 65.1038931 -128.5546875 59.90625 C-122.83000794 53.62306512 -114.17295117 50.02364817 -106.6796875 46.15625 C-105.73802734 45.66737305 -104.79636719 45.17849609 -103.82617188 44.67480469 C-90.94444785 38.00573864 -78.01643008 31.42564128 -65.09423828 24.83544922 C-56.18342632 20.28975911 -47.27738768 15.73630785 -38.40234375 11.12109375 C-37.6777597 10.744758 -36.95317566 10.36842224 -36.20663452 9.98068237 C-32.88679322 8.25596862 -29.56930558 6.52700664 -26.25585938 4.79003906 C-25.10794922 4.19288086 -23.96003906 3.59572266 -22.77734375 2.98046875 C-21.79644775 2.46701904 -20.81555176 1.95356934 -19.80493164 1.42456055 C-12.99835557 -1.79587571 -7.06870623 -3.21556832 0 0 Z " fill="#000000" transform="translate(1598.9921875,300.90625)"/>
<path d="M0 0 C24.50780941 10.72806927 47.48407844 26.95277371 68.26953125 43.6328125 C69.2646875 44.41269531 70.25984375 45.19257813 71.28515625 45.99609375 C85.28798151 57.13470476 85.28798151 57.13470476 86.578125 65.67578125 C86.92973973 71.52537183 85.47321259 75.07664218 81.9609375 79.74609375 C78.160003 83.98593523 74.45938182 84.82746734 68.95703125 85.1953125 C61.14514603 84.90210501 56.86811352 80.81696748 51.1015625 75.97265625 C33.73023425 61.44761161 14.69311873 49.15707054 -5.109375 38.2109375 C-8.48726216 36.34014119 -11.83684834 34.42843543 -15.1640625 32.46875 C-16.3850061 31.75017822 -16.3850061 31.75017822 -17.63061523 31.01708984 C-20.30992933 29.25081721 -22.0210646 27.33936907 -23.73046875 24.6328125 C-24.14296875 24.0346875 -24.55546875 23.4365625 -24.98046875 22.8203125 C-26.65656308 17.93170403 -26.08344194 13.72888714 -24.54296875 8.9453125 C-18.9489125 -1.27830755 -10.69475601 -3.91954409 0 0 Z " fill="#000000" transform="translate(1126.73046875,221.3671875)"/>
<path d="M0 0 C3.97429324 4.25195095 5.89075081 7.60367256 7.55859375 13.28125 C7.76326767 13.97400024 7.96794159 14.66675049 8.17881775 15.38049316 C10.4783033 23.33950883 12.30736414 31.40669268 14.0625 39.5 C14.31821777 40.66606277 14.31821777 40.66606277 14.57910156 41.85568237 C16.73963576 51.7235942 18.79231409 61.60462194 20.5 71.5625 C20.65992432 72.47515625 20.81984863 73.3878125 20.98461914 74.328125 C23.63535316 90.75745733 23.63535316 90.75745733 19.875 97.4375 C16.32070022 102.2824673 12.53358526 104.96428407 6.5625 105.9375 C0.69016853 106.34214805 -3.27470997 104.45081207 -7.75 100.6875 C-12.01191022 95.59688502 -13.53696237 90.46613787 -14.54296875 84.0078125 C-14.81069111 82.4142488 -15.07877275 80.82074543 -15.34716797 79.22729492 C-15.48394958 78.39491302 -15.6207312 77.56253113 -15.76165771 76.70492554 C-18.29414106 61.36211279 -21.38672716 46.29753434 -25.42260742 31.27978516 C-29.95185077 14.2257165 -29.95185077 14.2257165 -27.875 7.1875 C-25.02139101 2.33636472 -21.33901137 -1.95059643 -15.8125 -3.6875 C-9.96117375 -4.33764736 -4.73103784 -3.70811074 0 0 Z " fill="#000000" transform="translate(1458,431)"/>
<path d="M0 0 C4.21946489 2.90520534 7.13907784 5.86474807 8.64453125 10.8515625 C9.25896427 16.05479907 9.32635379 20.34587105 7.14453125 25.1640625 C0.70410808 32.08751741 -7.28210577 36.05935281 -15.69476318 40.14352417 C-19.05711707 41.77602712 -22.40642326 43.43498176 -25.7578125 45.08984375 C-26.41819519 45.41497452 -27.07857788 45.74010529 -27.75897217 46.0750885 C-33.13057447 48.72447471 -38.4433557 51.4747365 -43.73046875 54.2890625 C-45.20571388 55.06643526 -46.68097382 55.84377992 -48.15625 56.62109375 C-51.02191847 58.1353957 -53.86871116 59.6805042 -56.7109375 61.23828125 C-71.07222942 68.97584064 -71.07222942 68.97584064 -78.35546875 66.8515625 C-83.12385911 64.64618196 -86.4724443 62.20369368 -89.35546875 57.7890625 C-91.34396005 51.94786932 -92.2486423 46.93121818 -89.5234375 41.05859375 C-83.89504212 32.04918348 -72.03330081 28.06848249 -62.86447144 23.55905151 C-59.53667453 21.92210079 -56.21541437 20.27201549 -52.89453125 18.62109375 C-52.24095139 18.29637589 -51.58737152 17.97165802 -50.91398621 17.63710022 C-45.49548002 14.93762303 -40.1346138 12.13756794 -34.79296875 9.2890625 C-32.63153546 8.14833828 -30.46858862 7.01059257 -28.30419922 5.87548828 C-27.03021984 5.20609847 -25.75830842 4.53275417 -24.48876953 3.85498047 C-16.71070817 -0.26056471 -8.56126019 -4.17414676 0 0 Z " fill="#000000" transform="translate(453.35546875,889.1484375)"/>
<path d="M0 0 C5.59910331 3.6505167 9.75171268 9.06606045 13.8984375 14.21875 C20.92343245 22.94275745 28.61009802 31.14367338 36.64453125 38.9453125 C37.58776245 39.86509888 37.58776245 39.86509888 38.55004883 40.8034668 C39.74215947 41.95810255 40.94324653 43.10357615 42.1550293 44.23754883 C46.78469108 48.71309314 49.93681454 53.4675033 51.375 59.80859375 C51.44474905 66.60912587 49.48613336 71.21417514 44.7734375 76.15625 C39.79790402 79.25422368 34.53925401 80.15136554 28.7734375 79.15625 C24.07092188 77.14387893 20.71536691 74.51868168 17.18359375 70.89453125 C16.67598007 70.3850444 16.16836639 69.87555756 15.64537048 69.35063171 C14.5771803 68.27575245 13.512577 67.19729785 12.45141602 66.11547852 C10.85087001 64.48397137 9.24009053 62.86318966 7.62695312 61.24414062 C2.70419664 56.28424061 -2.13262531 51.27773847 -6.67700195 45.96459961 C-8.27936621 44.09462764 -9.9229285 42.26859801 -11.578125 40.4453125 C-25.29097487 25.18559252 -25.29097487 25.18559252 -26.7890625 15.53125 C-25.85344152 9.91752412 -23.86678359 5.71446003 -19.7265625 1.78125 C-18.4890625 0.976875 -18.4890625 0.976875 -17.2265625 0.15625 C-16.6284375 -0.25625 -16.0303125 -0.66875 -15.4140625 -1.09375 C-10.26764193 -2.85823705 -4.86737781 -2.37862807 0 0 Z " fill="#000000" transform="translate(536.2265625,909.84375)"/>
<path d="M0 0 C4.63082878 2.44647558 8.97019945 5.68404223 10.5859375 10.88671875 C11.73076098 16.72963859 11.8327292 22.25302559 8.43041992 27.40014648 C2.36462319 34.18443834 -7.37433513 37.84760824 -15.375 41.75 C-17.86365234 42.97579086 -20.3499098 44.20639639 -22.8359375 45.4375 C-23.44814148 45.74008728 -24.06034546 46.04267456 -24.69110107 46.35443115 C-32.28572526 50.11679125 -39.77375814 54.07872264 -47.24609375 58.07714844 C-48.11427734 58.53395996 -48.11427734 58.53395996 -49 59 C-49.6815918 59.36134033 -50.36318359 59.72268066 -51.06542969 60.0949707 C-55.12087987 61.9921885 -59.65274422 61.5944452 -64 61 C-68.54262725 59.13692902 -72.5994796 56.37741955 -75 52 C-76.73702841 46.23058422 -77.04086954 40.25521733 -74.5 34.75 C-68.64082445 28.30490689 -61.45967522 24.47573347 -53.6875 20.75 C-51.73609316 19.79608118 -49.78558832 18.8403152 -47.8359375 17.8828125 C-46.37365723 17.16593262 -46.37365723 17.16593262 -44.88183594 16.43457031 C-40.48258862 14.24463662 -36.14780731 11.93824397 -31.8125 9.625 C-9.67851774 -2.13789176 -9.67851774 -2.13789176 0 0 Z " fill="#000000" transform="translate(561,709)"/>
<path d="M0 0 C2.60036553 2.34074772 5.08056855 4.76847412 7.55078125 7.24609375 C14.83194026 14.21113876 22.32776414 20.55137897 30.41235352 26.56738281 C45.41373191 37.76642108 45.41373191 37.76642108 47.55078125 45.24609375 C48.30579194 51.17832061 46.81649485 55.37933225 43.55078125 60.24609375 C39.49719047 64.19574631 35.80272019 66.03758088 30.17578125 66.55859375 C22.73816077 65.91741957 17.53310072 62.06041408 11.80078125 57.62109375 C11.09832275 57.08403809 10.39586426 56.54698242 9.67211914 55.99365234 C7.62402189 54.4207174 5.58581253 52.83588076 3.55078125 51.24609375 C2.57496094 50.488125 1.59914063 49.73015625 0.59375 48.94921875 C-4.91057026 44.55896631 -10.14270261 39.88404731 -15.32421875 35.12109375 C-15.95529541 34.54697754 -16.58637207 33.97286133 -17.23657227 33.38134766 C-23.0009934 28.00839955 -28.15171317 22.7086774 -28.69921875 14.49609375 C-28.58580409 9.33572658 -27.48184545 5.1995272 -23.64453125 1.51171875 C-16.31297827 -4.29819116 -8.02437533 -5.74632301 0 0 Z " fill="#000000" transform="translate(746.44921875,775.75390625)"/>
<path d="M0 0 C4.126053 2.47410927 7.80133853 5.04714742 9.21875 9.84375 C10.25060206 14.71444151 10.760161 19.59380417 8.69140625 24.23828125 C2.41929014 33.42560625 -9.35676329 37.66013456 -19.0078125 42.39453125 C-27.64146228 46.66466302 -36.20811406 51.00987975 -44.66015625 55.62890625 C-49.86167837 58.34805732 -54.54826182 58.75493326 -60.3203125 58.01953125 C-65.02847692 56.30309652 -68.30313617 53.67107996 -70.8203125 49.33203125 C-72.79798606 44.60164989 -73.36110906 40.05538539 -72.3203125 35.01953125 C-67.8135128 25.59472749 -57.60452884 21.51449335 -48.74609375 17.0078125 C-47.85923386 16.55351364 -46.97237396 16.09921478 -46.05863953 15.63114929 C-44.19809094 14.67906181 -42.3366526 13.72871123 -40.47436523 12.7800293 C-37.62840912 11.32978738 -34.78569909 9.87333042 -31.94335938 8.41601562 C-30.12779207 7.48791357 -28.31204312 6.56016676 -26.49609375 5.6328125 C-25.65017166 5.19947098 -24.80424957 4.76612946 -23.93269348 4.31965637 C-8.43276799 -3.56334135 -8.43276799 -3.56334135 0 0 Z " fill="#000000" transform="translate(1790.3203125,201.98046875)"/>
<path d="M0 0 C3.375 1.75 3.375 1.75 6 4 C6.7425 4.61875 7.485 5.2375 8.25 5.875 C11.64788817 10.00100706 12.19570307 13.79053064 11.875 19 C11.24293453 23.63977728 10.26585011 26.49518525 7 30 C0.108068 34.64143738 -7.37590548 38.38478067 -14.75 42.1875 C-15.75160156 42.70763672 -16.75320313 43.22777344 -17.78515625 43.76367188 C-20.52030682 45.18196518 -23.25910741 46.59284291 -26 48 C-27.16273437 48.598125 -28.32546875 49.19625 -29.5234375 49.8125 C-34.48116223 52.18970555 -38.662052 52.3975451 -43.9765625 50.83984375 C-48.63621201 48.90581934 -51.8957951 46.20104843 -54.171875 41.6640625 C-56.54627762 34.89493223 -55.86646676 30.53122858 -53.15576172 23.95043945 C-48.8412729 16.66939781 -37.12374978 12.8709022 -29.875 9.3125 C-28.73417969 8.74466797 -27.59335938 8.17683594 -26.41796875 7.59179688 C-8.50841248 -1.27977775 -8.50841248 -1.27977775 0 0 Z " fill="#000000" transform="translate(1354,301)"/>
<path d="M0 0 C4.26645734 3.45422383 6.32619855 6.39705425 7.12109375 11.8828125 C8.06591782 24.76860458 -2.80739458 34.57330347 -10.58203125 43.78222656 C-12.05335295 45.53053437 -13.50030239 47.29637543 -14.9453125 49.06640625 C-19.03657867 53.88642921 -22.56960986 58.0388137 -28.8984375 59.53125 C-34.78126199 59.96145655 -39.52031975 59.05346821 -44.1328125 55.32421875 C-45.15375 54.02484375 -45.15375 54.02484375 -46.1953125 52.69921875 C-46.71480469 52.08433594 -47.23429687 51.46945312 -47.76953125 50.8359375 C-50.26332036 47.09866999 -50.27760289 43.10175486 -50.1953125 38.69921875 C-48.35216456 31.45828042 -42.9638494 26.27103139 -38.1953125 20.69921875 C-36.83941407 19.10037007 -35.48713769 17.49863836 -34.13891602 15.89331055 C-32.88398612 14.39998812 -31.62186685 12.9127161 -30.359375 11.42578125 C-28.38407247 8.93704269 -26.82307724 6.41827365 -25.1953125 3.69921875 C-17.70699585 -3.45628383 -9.30421973 -5.51299852 0 0 Z " fill="#000000" transform="translate(1178.1953125,742.30078125)"/>
<path d="M0 0 C3.78992162 2.71573226 6.34387303 5.416491 7.6875 9.9375 C8.4621939 16.05491046 8.56049598 21.89086887 4.6875 26.9375 C-5.13654353 35.51166522 -21.31813207 44.40690142 -34.44921875 44.28515625 C-38.92320948 43.74192954 -41.99319891 41.92242432 -45.3125 38.9375 C-49.12530782 33.89475417 -49.83351675 29.18970105 -49.3125 22.9375 C-47.63004258 17.06026699 -44.57242073 13.7720535 -39.421875 10.65234375 C-33.49215338 7.38205758 -27.54619097 4.14557142 -21.54296875 1.01171875 C-20.82520264 0.63619873 -20.10743652 0.26067871 -19.36791992 -0.1262207 C-13.08878016 -2.98647738 -6.08625552 -3.46973445 0 0 Z " fill="#000000" transform="translate(1667.3125,267.0625)"/>
<path d="M0 0 C4.54648705 3.03099137 6.84137561 5.58206267 8.625 10.75 C9.75939564 18.03123714 8.13597104 25.40860249 6.8125 32.5625 C6.5647583 33.92375 6.5647583 33.92375 6.31201172 35.3125 C4.79672971 43.03288321 2.59668643 48.37548222 -3.375 53.75 C-7.01792037 56.17861358 -10.06138784 56.92399444 -14.375 56.75 C-20.38703858 55.23572342 -25.08902079 53.22663202 -28.375 47.75 C-32.80884244 39.96650288 -30.17186267 30.43958903 -28.6875 22.0625 C-28.46489502 20.72650757 -28.46489502 20.72650757 -28.23779297 19.36352539 C-26.8456935 12.04717859 -24.25047431 6.42008329 -18.75 1.3125 C-13.11977171 -2.39159756 -6.18435329 -2.29050122 0 0 Z " fill="#000000" transform="translate(385.375,457.25)"/>
<path d="M0 0 C4.62329385 3.07212337 6.44790613 6.88021645 7.53515625 12.1484375 C8.13606035 16.9101473 7.35828657 20.70679659 4.85546875 24.75390625 C1.38466281 29.21209663 -3.29042955 31.58596622 -8.20703125 34.19140625 C-9.03847656 34.66964844 -9.86992188 35.14789063 -10.7265625 35.640625 C-16.42498133 38.77251188 -21.63888928 40.5673605 -28.20703125 40.19140625 C-33.44676786 38.64525446 -36.83749849 36.49692033 -40.20703125 32.19140625 C-43.01907497 26.77795878 -43.57620663 22.35000732 -42.23828125 16.4296875 C-38.9101691 9.20617136 -33.49166854 6.29465257 -26.64453125 2.87890625 C-25.79439453 2.43740234 -24.94425781 1.99589844 -24.06835938 1.54101562 C-15.73741876 -2.72573278 -8.69649069 -4.8276457 0 0 Z " fill="#000000" transform="translate(1276.20703125,345.80859375)"/>
</svg>
