<svg xmlns="http://www.w3.org/2000/svg" width="500" height="356"><path d="M354.625 107.688C357 108 357 108 358 109a98.55 98.55 0 0 1-.313 5.938l-.238 3.277C357 121 357 121 355 123c-.643 2.069-.643 2.069-1 4l3.871-.465c5.058-.562 10.11-.857 15.192-1.097l2.623-.131c2.104-.105 4.21-.206 6.314-.307.043 1.666.04 3.334 0 5-4.897 4.897-20.682 4.476-27.27 4.79-2.693.035-2.693.035-4.73 1.21-6.636 13.932-9.652 26.824-7 42 1.781.864 1.781.864 4 1a175.708 175.708 0 0 0 4-4c1.422-.78 2.861-1.527 4.313-2.25 6.101-3.242 9.905-8.077 13.687-13.75 3.125-.188 3.125-.188 6 0 .2 4.316-.348 7.054-2 11-.746 2.984-1.383 5.987-2 9 1.917-.31 3.834-.623 5.75-.938l3.234-.527c2.38-.422 4.685-.907 7.016-1.535v-2l5-1 .297-2.64c1.64-13.065 5.541-23.783 11.703-35.36.594-1.133 1.189-2.266 1.8-3.434 5.96-11.242 5.96-11.242 9.2-15.566 3.571-1.02 5.782-1.549 9.219 0l1.781 1c.943 11.331-1.24 18.916-6 29-.43.964-.859 1.928-1.3 2.922-2.174 4.673-4.6 8.481-8.075 12.281-1.93 2.134-3.717 4.352-5.5 6.61l-1.805 2.269c-1.509 1.804-1.509 1.804-1.32 3.918 6.285 1.513 9.805.815 15.414-2.387L420 170l2.648-1.52c8.213-5.462 9.923-12.469 12.67-21.43 1.645-4.948 4.218-9.473 6.682-14.05l1.723-3.379c6.39-12.345 6.39-12.345 11.277-16.621 3.75-.125 3.75-.125 7 1 3.41 5.116 1.817 11.104 1 17-.737 2.647-1.69 4.526-3 7a391.501 391.501 0 0 0-2 4.5l-1.047 2.316c-.805 1.845-1.515 3.73-2.203 5.621-2.517 5.125-6.123 9.184-9.75 13.563a347.914 347.914 0 0 0-3.5 4.5l-1.469 1.906c-1.212 1.557-1.212 1.557-1.031 3.594 8.72.545 15.248-2.694 22.125-7.75l1.843-1.328c4.35-3.213 7.64-6.705 11.032-10.922h3c-.73 6.017-3.388 10.463-7.688 14.563A224.393 224.393 0 0 1 466 171l-1.824 1.5c-4.817 3.67-9.634 5.49-15.426 7l-2.078.559c-4.23.999-6.858 1.087-10.672-1.059-2.839-2.433-4.412-4.655-6-8l-1.625 1.39c-5.303 4.152-10.218 6.506-16.688 8.11l-2.064.52c-3.842.867-6.89 1.33-10.623-.02-2.813-2.063-2.813-2.063-5-4l-2.16 1.496c-5.376 3.596-9.337 6.233-15.84 6.504l-3 1c-4.556-2.038-7.006-5.15-10-9l-1.688 1.46c-6.316 5.23-10.645 7.54-19 7.54-4.356-1.315-5.77-3.295-8.312-7a148.94 148.94 0 0 1-2-4l-2.273 1.207c-5.862 3.034-11.474 5.568-17.864 7.25-1.86.38-1.86.38-2.863 1.543-2-.258-4.001-.52-5.992-.844-2.215-.303-2.215-.303-5.008.844v-2c-5.804-.533-5.804-.533-10.813 2L285 187h-3v-2l-3.688-.688c-4.4-1.164-6.775-2.348-9.312-6.312-.405-4.035-.29-7.96 0-12l3-1v-2c-5.574 4.76-5.574 4.76-10.75 9.938C259 175 259 175 255 175l1 4-1.938 1.313c-2.33 1.6-2.33 1.6-3.062 4.687h-2v3c-1.666.043-3.334.04-5 0-1-1-1-1-1.25-4.25.264-3.961 1.127-5.51 3.25-8.75l-3.395 1.75-4.417 2.25-2.237 1.156-2.158 1.094-1.984 1.016C230 183 230 183 227 183v3c-12.074 3.197-12.074 3.197-18 2-2.563-2.375-2.563-2.375-4-5v-2h-5v2c-6.042 3.469-9.805 5.237-16.875 5.375l-2.184.113c-3.78.063-5.543-.128-8.386-2.699-1.503-2.696-2.207-4.74-2.555-7.789-.96 1.582-1.918 3.166-2.875 4.75l-1.617 2.672c-1.51 2.489-1.51 2.489-2.57 4.86C162 192 162 192 159.875 192.75L158 193c-3.12-6.239.12-13.809 2-20-4.598.027-8.674.38-13 2-2.158 2.905-3.34 5.724-4.688 9.074-2.22 4.95-5.462 6.811-10.359 8.727-3.195.979-5.616 1.27-8.89.574C121 192 121 192 120.186 189.875L120 188c-3.746.506-5.513 1.158-8 4-3.954 1.977-8.701 1.57-13 1-2.897-2.202-4.393-3.786-6-7-.236-7.312-.236-7.312.75-10.188.502-2.118.502-2.118-1.688-4.562L90 169c-1.15 1.6-2.295 3.206-3.438 4.813l-1.933 2.707C82.867 178.97 82.867 178.97 82 182h-3l-2 5h-2l-.75 2.438C73 192 73 192 70.875 192.813L69 193v-7l-3.188.688c-4.2.344-5.528-.2-8.812-2.688l-.5 2.063c-2.722 5.33-7.32 8.973-12.75 11.375C41 198 41 198 37 198v-2h-3c-2.613-5.36-4.411-9.997-5-16l-.813-2.188L28 176l1.75-1.688c2.265-2.327 2.77-3.353 3.71-6.343l.772-2.435c.991-3.27 1.96-6.546 2.911-9.829 8.008-27.554 8.008-27.554 13.982-30.893L53 124l1-2c6.75-.125 6.75-.125 9 1 .484 2.363.484 2.363.75 5.313l.297 2.925c-.05 2.974-.573 4.233-2.047 6.762l-.934 2.402c-3.107 7.57-7.765 14.348-12.754 20.786-3.645 4.725-6.215 9.246-8.312 14.812l-1 2c-.07 2.207-.084 4.417-.063 6.625l.028 3.602L39 191c5.436-2.066 11.255-4.51 14-10h2l-.105-2.414C54.607 167.329 54.607 167.329 58 163c2.563-1 2.563-1 5-1l2 2c-.23 2.723-.556 5.313-1 8-.19 1.333-.378 2.666-.563 4L63 179c3.051-.128 6.015-.335 9-1 1.893-1.937 1.893-1.937 3-4h3v-3l3-1 .813-2.5c1.605-4.731 4.32-8.443 7.187-12.5l6 2-.063 3.375c-.2 3.457-.2 3.457 1.063 5.625h13c-1.108 5.538-1.108 5.538-3.938 8.375-3.126 3.41-4.143 6.122-5.062 10.625 2.302.778 2.302.778 5 1 2.023-1.246 2.023-1.246 4-3l2.813-1.25c5.984-3.286 9.764-7.931 13.187-13.75l3-1c.733-2.015.733-2.015 1-4h2l.063-1.75c1.483-3.56 4.537-4.831 7.937-6.25 2.75-.563 2.75-.563 5 0 3.409 3.896 3.58 8.035 4 13l12-1 1.313-5.375c2.242-8.916 4.717-17.316 8.687-25.625l1.5-3.188c5.144-9.644 5.144-9.644 10.5-11.812 5.417.417 5.417.417 7 2 .761 6.558-.599 11.952-3 18-.36.92-.72 1.84-1.09 2.79A583.32 583.32 0 0 1 182 151l1.75-.484c4.333-.993 8.537-1.219 12.688.484 1.909 2.444 2.616 4.658 2.843 7.75-.692 5.535-4.392 9.613-8.476 13.152-4.25 3.061-7.394 4.93-12.805 4.098l-1 7c9.9-.647 17.739-1.598 25-9 2.89-3.969 4.666-8.104 6.375-12.688 3.352-6.831 9.2-10.161 16.18-12.765 3.755-.84 5.96-.062 9.445 1.453 1.302 5.207.44 8.403-1.813 13.188l-.957 2.105C230 167 230 167 227.863 167.738L226 168v3h-3v2c-2.648 1.792-5.368 3.177-8.25 4.563-2.849 1.147-2.849 1.147-3.75 3.437 12.488-1.68 12.488-1.68 23-8 2.38-1.01 4.78-1.924 7.223-2.77 4.592-1.615 4.592-1.615 7.882-4.976A258.752 258.752 0 0 0 251 160c2.188-1.438 2.188-1.438 4-2 1.5 1.188 1.5 1.188 3 3 .188 2.625.188 2.625 0 5v1l2.063-2.125C272.005 153 272.005 153 279 153c1.12 3.971.996 6.478-.438 10.25-1.863 4.972-1.858 9.498-1.562 14.75l8 1c-.406-2.92-.704-4.647-2.625-6.938C281 170 281 170 281.312 166.75L282 164h5l2 6c2.523-1.751 2.523-1.751 5-4l.266-1.82c1.183-3.514 4.159-5.192 7.046-7.305l1.764-1.34C310.46 150 310.46 150 313.937 150c3.264 1.583 5.353 3.866 7.063 7 .682 5.947-.508 11.244-2 17 4.572-1.6 8.211-2.94 12-6h2l.348-3.895c.565-5.078 1.736-9.873 3.09-14.792l.658-2.471c1.17-4.348 2.476-8.56 3.904-12.842h-13c0-4 0-4 1-5 3.005-.245 6.008-.384 9.02-.523 3.339-.534 4.678-1.015 6.98-3.477 1.238-3.031 1.238-3.031 2.063-6.438 2.73-10.3 2.73-10.3 7.562-10.874ZM455 124c-4.249 7.157-8.31 14.124-11.195 21.96-.805 2.04-.805 2.04-2.493 4.727-1.724 3.04-1.974 5.867-2.312 9.313 3.152-1.332 4.624-2.465 6.29-5.45l1.163-2.071 1.172-2.167 1.195-2.107c2.386-4.316 3.924-8.41 5.18-13.205l1.688-3.125c1.473-3.228 1.385-4.56.312-7.875h-1Zm-37 1c-7.111 10.237-13.869 22.893-17 35l1 2c7.107-7.615 11.618-16.193 15-26l1.188-2.625c.986-2.884.953-5.349.812-8.375h-1Zm-238.5 5.063c-3.458 4.467-4.96 10.15-6.672 15.468-1.233 3.675-2.649 7.28-4.058 10.89-.796 2.665-.914 4.815-.77 7.579 5.295-6.354 8.062-14.374 11-22l1.363-3.527c1.217-3.156 2.429-6.314 3.637-9.473-2.898-.289-2.898-.289-4.5 1.063ZM56 130c-3.707 3.169-4.954 5.978-6.313 10.625l-1.05 3.477c-.938 2.82-.938 2.82.363 4.898l1.313-2.25C52 144 52 144 53.563 142.062c2.274-3.262 3.693-6.44 3.062-10.437L56 130Zm121.418 34.219c-1.542 1.937-2.01 3.361-2.418 5.781 2.105.979 2.105.979 5 1 4.224-1.906 9.081-4.651 11-9-.229-3.688-.229-3.688-1-7-4.402 0-9.675 6.395-12.582 9.219ZM225 155l-1.75 1.875C221 159 221 159 218.875 159.938c-2.651 1.502-2.93 3.227-3.875 6.062a174.883 174.883 0 0 1-2 4c2.972-1.125 5.334-2.223 8-4v-2l1.875-.625c2.972-1.923 3.255-4.04 4.125-7.375l-2-1Zm85 3a826.902 826.902 0 0 0-6.438 6.188l-1.853 1.751c-4.368 4.23-4.368 4.23-5.709 10.061 6.082 1.35 6.082 1.35 11.965.059 2.625-2.15 3.959-3.831 5.035-7.059.068-1.728.085-3.458.063-5.188l-.028-2.73L313 159l-3-1Zm-170 3c-1.637 1.96-1.637 1.96-3 4l2 3h2l1-7h-2Zm27 3 1 2Zm-35 6c-2.287 2.561-3.332 4.659-4 8l-1 2c-.04 2.333-.043 4.667 0 7 4.147.148 4.147.148 8-1 2.772-3.3 6-7.549 6-12l-3.375-2-1.898-1.125c-1.702-1.026-1.702-1.026-3.727-.875Z" fill="#313131"/><path d="M379 132c1.938.813 1.938.813 4 2 1.312 3.937.243 6.125-1 10-3.367-1.393-4.986-2.979-7-6 1.152-2.468 2.048-4.048 4-6Z" fill="#323232"/></svg>