<?xml version="1.0" encoding="UTF-8"?>
<svg version="1.1" xmlns="http://www.w3.org/2000/svg" width="500" height="356">
<path d="M0 0 C2.375 0.3125 2.375 0.3125 3.375 1.3125 C3.33706177 3.29404285 3.21989394 5.27435364 3.0625 7.25 C2.98386719 8.33152344 2.90523438 9.41304687 2.82421875 10.52734375 C2.375 13.3125 2.375 13.3125 0.375 15.3125 C-0.2675235 17.38124034 -0.2675235 17.38124034 -0.625 19.3125 C0.65246094 19.15910156 1.92992187 19.00570312 3.24609375 18.84765625 C8.30383136 18.2856854 13.35571937 17.99048768 18.4375 17.75 C19.7359082 17.68522461 19.7359082 17.68522461 21.06054688 17.61914062 C23.16524468 17.51448714 25.27010651 17.41314089 27.375 17.3125 C27.417721 18.97861905 27.41563832 20.64632885 27.375 22.3125 C22.47794546 27.20955454 6.69308507 26.78892986 0.10546875 27.1015625 C-2.58832382 27.13708152 -2.58832382 27.13708152 -4.625 28.3125 C-11.26075938 42.24456159 -14.27693682 55.13629013 -11.625 70.3125 C-9.84358253 71.17608623 -9.84358253 71.17608623 -7.625 71.3125 C-6.26675118 70.00455669 -4.94043863 68.66349103 -3.625 67.3125 C-2.20349541 66.53260838 -0.76369803 65.78563936 0.6875 65.0625 C6.78919277 61.82034641 10.592793 56.9858105 14.375 51.3125 C17.5 51.125 17.5 51.125 20.375 51.3125 C20.57574863 55.62859556 20.02680015 58.36653298 18.375 62.3125 C17.62904483 65.29632068 16.99201664 68.29962086 16.375 71.3125 C18.2919986 71.00204268 20.20858723 70.68905329 22.125 70.375 C23.19234375 70.20097656 24.2596875 70.02695313 25.359375 69.84765625 C27.73847593 69.42545829 30.04415211 68.94047116 32.375 68.3125 C32.375 67.6525 32.375 66.9925 32.375 66.3125 C34.025 65.9825 35.675 65.6525 37.375 65.3125 C37.52195312 64.00539062 37.52195312 64.00539062 37.671875 62.671875 C39.31199646 49.60745926 43.21316088 38.88973218 49.375 27.3125 C49.96925781 26.17941406 50.56351562 25.04632813 51.17578125 23.87890625 C57.13514554 12.63650809 57.13514554 12.63650809 60.375 8.3125 C63.94617269 7.29216495 66.15741784 6.76373058 69.59375 8.3125 C70.1815625 8.6425 70.769375 8.9725 71.375 9.3125 C72.31782481 20.64385742 70.13433389 28.22859066 65.375 38.3125 C64.94574219 39.27671875 64.51648438 40.2409375 64.07421875 41.234375 C61.90057846 45.90734761 59.47415499 49.71576797 56 53.515625 C54.07063606 55.64905628 52.28275375 57.86780372 50.5 60.125 C49.90445312 60.87394531 49.30890625 61.62289062 48.6953125 62.39453125 C47.18599097 64.19898602 47.18599097 64.19898602 47.375 66.3125 C53.65953975 67.82544476 57.18029041 67.12709578 62.7890625 63.92578125 C63.64242188 63.39339844 64.49578125 62.86101562 65.375 62.3125 C66.24898438 61.81105469 67.12296875 61.30960938 68.0234375 60.79296875 C76.23598211 55.33027016 77.94640113 48.32381649 80.69384766 39.36328125 C82.33764838 34.41420382 84.91145907 29.88940272 87.375 25.3125 C87.94347656 24.19746094 88.51195312 23.08242187 89.09765625 21.93359375 C95.48768521 9.58890044 95.48768521 9.58890044 100.375 5.3125 C104.125 5.1875 104.125 5.1875 107.375 6.3125 C110.78542837 11.42814256 109.19152033 17.4161524 108.375 23.3125 C107.63779376 25.95974059 106.68479561 27.83844162 105.375 30.3125 C104.698596 31.80813434 104.03253811 33.30847604 103.375 34.8125 C102.85679687 35.95912109 102.85679687 35.95912109 102.328125 37.12890625 C101.52304571 38.9733297 100.81274894 40.85869042 100.125 42.75 C97.60768321 47.87453774 94.00231709 51.93376129 90.375 56.3125 C89.19669055 57.80337154 88.0287224 59.30252128 86.875 60.8125 C86.14796875 61.75609375 86.14796875 61.75609375 85.40625 62.71875 C84.19391624 64.27597458 84.19391624 64.27597458 84.375 66.3125 C93.0941176 66.85744485 99.62295635 63.6186693 106.5 58.5625 C107.1081958 58.12437988 107.7163916 57.68625977 108.34301758 57.23486328 C112.69371032 54.02130343 115.98281855 50.52980666 119.375 46.3125 C120.365 46.3125 121.355 46.3125 122.375 46.3125 C121.6456477 52.3296565 118.98706468 56.77541507 114.6875 60.875 C113.59111268 61.69796727 112.48628616 62.50976508 111.375 63.3125 C110.77300781 63.8075 110.17101562 64.3025 109.55078125 64.8125 C104.733727 68.48263657 99.91724617 70.3029936 94.125 71.8125 C93.09656982 72.08912476 93.09656982 72.08912476 92.04736328 72.37133789 C87.81785227 73.37013015 85.18884534 73.45822061 81.375 71.3125 C78.53606543 68.87912751 76.96334384 66.65711831 75.375 63.3125 C74.83875 63.77140625 74.3025 64.2303125 73.75 64.703125 C68.44686272 68.85492327 63.53230663 71.20839121 57.0625 72.8125 C56.38123047 72.98426758 55.69996094 73.15603516 54.99804688 73.33300781 C51.15633813 74.19994209 48.10839545 74.66327624 44.375 73.3125 C41.5625 71.25 41.5625 71.25 39.375 69.3125 C38.66214844 69.80621094 37.94929688 70.29992187 37.21484375 70.80859375 C31.83946816 74.40423529 27.87842552 77.04152394 21.375 77.3125 C19.89 77.8075 19.89 77.8075 18.375 78.3125 C13.8185978 76.27410954 11.36924358 73.16224175 8.375 69.3125 C7.5396875 70.03566406 7.5396875 70.03566406 6.6875 70.7734375 C0.37065335 76.00190855 -3.95843187 78.3125 -12.3125 78.3125 C-16.66941079 76.99720618 -18.08225255 75.01764629 -20.625 71.3125 C-21.30948328 69.98822478 -21.98058626 68.65672957 -22.625 67.3125 C-23.37523437 67.71082031 -24.12546875 68.10914063 -24.8984375 68.51953125 C-30.76022268 71.55378026 -36.37152307 74.08790081 -42.76171875 75.76953125 C-44.62256683 76.14971871 -44.62256683 76.14971871 -45.625 77.3125 C-47.62551495 77.05436904 -49.62616001 76.79201646 -51.6171875 76.46875 C-53.83203469 76.1654674 -53.83203469 76.1654674 -56.625 77.3125 C-56.625 76.6525 -56.625 75.9925 -56.625 75.3125 C-62.42892273 74.7792707 -62.42892273 74.7792707 -67.4375 77.3125 C-68.5203125 78.3025 -68.5203125 78.3025 -69.625 79.3125 C-70.615 79.3125 -71.605 79.3125 -72.625 79.3125 C-72.625 78.6525 -72.625 77.9925 -72.625 77.3125 C-73.841875 77.085625 -75.05875 76.85875 -76.3125 76.625 C-80.71344888 75.46027285 -83.08833688 74.27603613 -85.625 70.3125 C-86.03009975 66.27728559 -85.91497359 62.35279864 -85.625 58.3125 C-84.635 57.9825 -83.645 57.6525 -82.625 57.3125 C-82.625 56.6525 -82.625 55.9925 -82.625 55.3125 C-88.19927067 60.07179803 -88.19927067 60.07179803 -93.375 65.25 C-95.625 67.3125 -95.625 67.3125 -99.625 67.3125 C-99.295 68.6325 -98.965 69.9525 -98.625 71.3125 C-99.264375 71.745625 -99.90375 72.17875 -100.5625 72.625 C-102.89246003 74.22489177 -102.89246003 74.22489177 -103.625 77.3125 C-104.285 77.3125 -104.945 77.3125 -105.625 77.3125 C-105.625 78.3025 -105.625 79.2925 -105.625 80.3125 C-107.29111905 80.355221 -108.95882885 80.35313832 -110.625 80.3125 C-111.625 79.3125 -111.625 79.3125 -111.875 76.0625 C-111.61091821 72.10127317 -110.74797209 70.55282582 -108.625 67.3125 C-109.74519531 67.89 -110.86539063 68.4675 -112.01953125 69.0625 C-113.4920265 69.81281605 -114.96469164 70.56279875 -116.4375 71.3125 C-117.17548828 71.6940625 -117.91347656 72.075625 -118.67382812 72.46875 C-119.38603516 72.8296875 -120.09824219 73.190625 -120.83203125 73.5625 C-121.81393433 74.06523437 -121.81393433 74.06523437 -122.81567383 74.578125 C-124.625 75.3125 -124.625 75.3125 -127.625 75.3125 C-127.625 76.3025 -127.625 77.2925 -127.625 78.3125 C-139.69932918 81.5094855 -139.69932918 81.5094855 -145.625 80.3125 C-148.1875 77.9375 -148.1875 77.9375 -149.625 75.3125 C-149.625 74.6525 -149.625 73.9925 -149.625 73.3125 C-151.275 73.3125 -152.925 73.3125 -154.625 73.3125 C-154.625 73.9725 -154.625 74.6325 -154.625 75.3125 C-160.6674439 78.78131039 -164.43046027 80.54986294 -171.5 80.6875 C-172.58087891 80.74357422 -172.58087891 80.74357422 -173.68359375 80.80078125 C-177.4630964 80.86342494 -179.22712297 80.67224185 -182.0703125 78.1015625 C-183.57343671 75.40500298 -184.27651401 73.36175237 -184.625 70.3125 C-185.58519364 71.89470587 -186.54307798 73.47831331 -187.5 75.0625 C-188.03367188 75.94421875 -188.56734375 76.8259375 -189.1171875 77.734375 C-190.62657988 80.22331416 -190.62657988 80.22331416 -191.6875 82.59375 C-192.625 84.3125 -192.625 84.3125 -194.75 85.0625 C-195.36875 85.145 -195.9875 85.2275 -196.625 85.3125 C-199.74433785 79.07382431 -196.50594297 71.50393729 -194.625 65.3125 C-199.22343411 65.33979041 -203.29879134 65.6927592 -207.625 67.3125 C-209.7831104 70.2173166 -210.96454237 73.03688356 -212.3125 76.38671875 C-214.5328563 81.336263 -217.77503018 83.19753089 -222.671875 85.11328125 C-225.86733954 86.09234275 -228.28826175 86.38414644 -231.5625 85.6875 C-233.625 84.3125 -233.625 84.3125 -234.4375 82.1875 C-234.5303125 81.259375 -234.5303125 81.259375 -234.625 80.3125 C-238.37081214 80.81869083 -240.13794161 81.47014755 -242.625 84.3125 C-246.57896963 86.28948481 -251.32619353 85.88319292 -255.625 85.3125 C-258.52183868 83.1109026 -260.01797231 81.52655538 -261.625 78.3125 C-261.86087224 71.00046069 -261.86087224 71.00046069 -260.875 68.125 C-260.37275907 66.00637979 -260.37275907 66.00637979 -262.5625 63.5625 C-263.243125 62.82 -263.92375 62.0775 -264.625 61.3125 C-265.77537471 62.9134131 -266.92014816 64.51835225 -268.0625 66.125 C-268.70058594 67.01832031 -269.33867187 67.91164063 -269.99609375 68.83203125 C-271.75790268 71.28384334 -271.75790268 71.28384334 -272.625 74.3125 C-273.615 74.3125 -274.605 74.3125 -275.625 74.3125 C-276.285 75.9625 -276.945 77.6125 -277.625 79.3125 C-278.285 79.3125 -278.945 79.3125 -279.625 79.3125 C-279.8725 80.116875 -280.12 80.92125 -280.375 81.75 C-281.625 84.3125 -281.625 84.3125 -283.75 85.125 C-284.36875 85.186875 -284.9875 85.24875 -285.625 85.3125 C-285.625 83.0025 -285.625 80.6925 -285.625 78.3125 C-286.676875 78.539375 -287.72875 78.76625 -288.8125 79 C-293.01301417 79.34430444 -294.3412062 78.80022258 -297.625 76.3125 C-297.79 76.993125 -297.955 77.67375 -298.125 78.375 C-300.84712857 83.70583511 -305.44579916 87.34862271 -310.875 89.75 C-313.625 90.3125 -313.625 90.3125 -317.625 90.3125 C-317.625 89.6525 -317.625 88.9925 -317.625 88.3125 C-318.615 88.3125 -319.605 88.3125 -320.625 88.3125 C-323.23847444 82.95183847 -325.03644064 78.31580551 -325.625 72.3125 C-325.893125 71.590625 -326.16125 70.86875 -326.4375 70.125 C-326.499375 69.526875 -326.56125 68.92875 -326.625 68.3125 C-326.0475 67.755625 -325.47 67.19875 -324.875 66.625 C-322.60992495 64.2970062 -322.10451996 63.27197165 -321.1640625 60.28125 C-320.78217773 59.07625854 -320.78217773 59.07625854 -320.39257812 57.84692383 C-319.40202304 54.57626469 -318.43283962 51.30015267 -317.48168945 48.01782227 C-309.47431639 20.46358857 -309.47431639 20.46358857 -303.5 17.125 C-302.88125 16.856875 -302.2625 16.58875 -301.625 16.3125 C-301.295 15.6525 -300.965 14.9925 -300.625 14.3125 C-293.875 14.1875 -293.875 14.1875 -291.625 15.3125 C-291.140625 17.67578125 -291.140625 17.67578125 -290.875 20.625 C-290.72804688 22.07326172 -290.72804688 22.07326172 -290.578125 23.55078125 C-290.62860195 26.52471517 -291.15077549 27.78309424 -292.625 30.3125 C-292.93308594 31.10527344 -293.24117188 31.89804688 -293.55859375 32.71484375 C-296.665865 40.28383783 -301.32364612 47.06223806 -306.3125 53.5 C-309.95764804 58.22565189 -312.52841393 62.74656318 -314.625 68.3125 C-315.12 69.3025 -315.12 69.3025 -315.625 70.3125 C-315.69592842 72.5197923 -315.70915025 74.72917452 -315.6875 76.9375 C-315.67847656 78.12601562 -315.66945313 79.31453125 -315.66015625 80.5390625 C-315.64855469 81.45429688 -315.63695312 82.36953125 -315.625 83.3125 C-310.18940182 81.24697269 -304.37006593 78.80263187 -301.625 73.3125 C-300.965 73.3125 -300.305 73.3125 -299.625 73.3125 C-299.67720703 72.11753906 -299.67720703 72.11753906 -299.73046875 70.8984375 C-300.01805302 59.64156764 -300.01805302 59.64156764 -296.625 55.3125 C-294.0625 54.3125 -294.0625 54.3125 -291.625 54.3125 C-290.965 54.9725 -290.305 55.6325 -289.625 56.3125 C-289.85575294 59.03538471 -290.18118719 61.62550291 -290.625 64.3125 C-290.81506699 65.64546983 -291.00278893 66.97877745 -291.1875 68.3125 C-291.331875 69.3025 -291.47625 70.2925 -291.625 71.3125 C-288.57399501 71.18457526 -285.60981952 70.97756674 -282.625 70.3125 C-280.73209491 68.37545292 -280.73209491 68.37545292 -279.625 66.3125 C-278.635 66.3125 -277.645 66.3125 -276.625 66.3125 C-276.625 65.3225 -276.625 64.3325 -276.625 63.3125 C-275.635 62.9825 -274.645 62.6525 -273.625 62.3125 C-273.356875 61.4875 -273.08875 60.6625 -272.8125 59.8125 C-271.20730658 55.08140362 -268.49194275 51.36949445 -265.625 47.3125 C-263.645 47.9725 -261.665 48.6325 -259.625 49.3125 C-259.645625 50.42625 -259.66625 51.54 -259.6875 52.6875 C-259.88880718 56.14465921 -259.88880718 56.14465921 -258.625 58.3125 C-254.335 58.3125 -250.045 58.3125 -245.625 58.3125 C-246.73264526 63.8507263 -246.73264526 63.8507263 -249.5625 66.6875 C-252.68850259 70.09836613 -253.70599616 72.80938119 -254.625 77.3125 C-252.3234589 78.09052187 -252.3234589 78.09052187 -249.625 78.3125 C-247.60170607 77.06672772 -247.60170607 77.06672772 -245.625 75.3125 C-244.696875 74.9 -243.76875 74.4875 -242.8125 74.0625 C-236.82785749 70.77681391 -233.04774336 66.13116371 -229.625 60.3125 C-228.635 59.9825 -227.645 59.6525 -226.625 59.3125 C-225.89176204 57.29741642 -225.89176204 57.29741642 -225.625 55.3125 C-224.965 55.3125 -224.305 55.3125 -223.625 55.3125 C-223.604375 54.735 -223.58375 54.1575 -223.5625 53.5625 C-222.07885364 50.00174874 -219.0246393 48.73141725 -215.625 47.3125 C-212.875 46.75 -212.875 46.75 -210.625 47.3125 C-207.21640519 51.20803693 -207.04579707 55.34709453 -206.625 60.3125 C-200.685 59.8175 -200.685 59.8175 -194.625 59.3125 C-194.191875 57.53875 -193.75875 55.765 -193.3125 53.9375 C-191.07045687 45.02171166 -188.5953176 36.62135013 -184.625 28.3125 C-184.13 27.260625 -183.635 26.20875 -183.125 25.125 C-177.9812753 15.48051619 -177.9812753 15.48051619 -172.625 13.3125 C-167.20833333 13.72916667 -167.20833333 13.72916667 -165.625 15.3125 C-164.86376668 21.87081781 -166.22390141 27.26454454 -168.625 33.3125 C-168.98464844 34.23289063 -169.34429687 35.15328125 -169.71484375 36.1015625 C-170.66888772 38.51213623 -171.638925 40.91488616 -172.625 43.3125 C-172.0475 43.15265625 -171.47 42.9928125 -170.875 42.828125 C-166.54156373 41.83504585 -162.33792983 41.60975956 -158.1875 43.3125 C-156.27814998 45.75646803 -155.57107832 47.97083489 -155.34375 51.0625 C-156.03556655 56.59703236 -159.73574052 60.67536589 -163.8203125 64.21484375 C-168.06964495 67.27580356 -171.21413706 69.14494045 -176.625 68.3125 C-176.955 70.6225 -177.285 72.9325 -177.625 75.3125 C-167.72481137 74.66568768 -159.88608211 73.71402857 -152.625 66.3125 C-149.73406338 62.34358701 -147.9592654 58.20893903 -146.25 53.625 C-142.89848826 46.79307223 -137.05018802 43.46348758 -130.0703125 40.859375 C-126.31476117 40.01947534 -124.11047257 40.79707714 -120.625 42.3125 C-119.32316063 47.51985747 -120.18440359 50.71553631 -122.4375 55.5 C-122.75332031 56.19480469 -123.06914062 56.88960937 -123.39453125 57.60546875 C-124.625 59.3125 -124.625 59.3125 -126.76171875 60.05078125 C-127.37660156 60.13714844 -127.99148437 60.22351563 -128.625 60.3125 C-128.625 61.3025 -128.625 62.2925 -128.625 63.3125 C-129.615 63.3125 -130.605 63.3125 -131.625 63.3125 C-131.625 63.9725 -131.625 64.6325 -131.625 65.3125 C-134.27346796 67.10411068 -136.9927816 68.48931808 -139.875 69.875 C-142.72398919 71.02256958 -142.72398919 71.02256958 -143.625 73.3125 C-131.1368895 71.63189749 -131.1368895 71.63189749 -120.625 65.3125 C-118.244891 64.30275679 -115.84541666 63.38881297 -113.40234375 62.54296875 C-108.80993003 60.92773653 -108.80993003 60.92773653 -105.51953125 57.56640625 C-104.86386615 55.82400341 -104.24290422 54.06864884 -103.625 52.3125 C-101.4375 50.875 -101.4375 50.875 -99.625 50.3125 C-98.125 51.5 -98.125 51.5 -96.625 53.3125 C-96.4375 55.9375 -96.4375 55.9375 -96.625 58.3125 C-96.625 58.6425 -96.625 58.9725 -96.625 59.3125 C-95.944375 58.61125 -95.26375 57.91 -94.5625 57.1875 C-82.62002841 45.3125 -82.62002841 45.3125 -75.625 45.3125 C-74.50491983 49.28369332 -74.62868329 51.79035604 -76.0625 55.5625 C-77.9260263 60.53472698 -77.92106827 65.0600295 -77.625 70.3125 C-74.985 70.6425 -72.345 70.9725 -69.625 71.3125 C-70.0306427 68.39187259 -70.32882375 66.66563322 -72.25 64.375 C-73.625 62.3125 -73.625 62.3125 -73.3125 59.0625 C-72.9721875 57.70125 -72.9721875 57.70125 -72.625 56.3125 C-70.975 56.3125 -69.325 56.3125 -67.625 56.3125 C-66.965 58.2925 -66.305 60.2725 -65.625 62.3125 C-63.10161498 60.56100483 -63.10161498 60.56100483 -60.625 58.3125 C-60.49351562 57.41144531 -60.49351562 57.41144531 -60.359375 56.4921875 C-59.17566443 52.97883378 -56.20006068 51.30065516 -53.3125 49.1875 C-52.73048828 48.74535156 -52.14847656 48.30320313 -51.54882812 47.84765625 C-44.1658327 42.3125 -44.1658327 42.3125 -40.6875 42.3125 C-37.42356599 43.89501346 -35.33526682 46.17814646 -33.625 49.3125 C-32.9426088 55.25905186 -34.13262349 60.55619059 -35.625 66.3125 C-31.05313299 64.71234655 -27.41379046 63.37267691 -23.625 60.3125 C-22.965 60.3125 -22.305 60.3125 -21.625 60.3125 C-21.51027344 59.02730469 -21.39554687 57.74210937 -21.27734375 56.41796875 C-20.71172046 51.33928793 -19.54056231 46.54415072 -18.1875 41.625 C-17.97029297 40.80966797 -17.75308594 39.99433594 -17.52929688 39.15429688 C-16.35883166 34.80635252 -15.0525659 30.5951977 -13.625 26.3125 C-17.915 26.3125 -22.205 26.3125 -26.625 26.3125 C-26.625 22.3125 -26.625 22.3125 -25.625 21.3125 C-22.62038798 21.06704002 -19.61675646 20.92844001 -16.60546875 20.7890625 C-13.26622539 20.25513368 -11.92659553 19.7740719 -9.625 17.3125 C-8.38654193 14.28142682 -8.38654193 14.28142682 -7.5625 10.875 C-4.83231127 0.57527515 -4.83231127 0.57527515 0 0 Z M100.375 16.3125 C96.12639815 23.46912544 92.06429407 30.43649753 89.1796875 38.2734375 C88.375 40.3125 88.375 40.3125 86.6875 43 C84.96288995 46.03859867 84.71279467 48.86699438 84.375 52.3125 C87.52701493 50.9809954 88.99876778 49.84729247 90.6640625 46.86328125 C91.04820312 46.17943359 91.43234375 45.49558594 91.828125 44.79101562 C92.21484375 44.07623047 92.6015625 43.36144531 93 42.625 C93.59167969 41.58182617 93.59167969 41.58182617 94.1953125 40.51757812 C96.58095092 36.20166808 98.11867154 32.10778188 99.375 27.3125 C99.931875 26.28125 100.48875 25.25 101.0625 24.1875 C102.53614084 20.95952483 102.44775791 19.62829717 101.375 16.3125 C101.045 16.3125 100.715 16.3125 100.375 16.3125 Z M63.375 17.3125 C56.26350286 27.54911872 49.50601097 40.20592426 46.375 52.3125 C46.705 52.9725 47.035 53.6325 47.375 54.3125 C54.48223365 46.6976068 58.99320294 38.11971147 62.375 28.3125 C62.766875 27.44625 63.15875 26.58 63.5625 25.6875 C64.549123 22.80352508 64.51576409 20.33892793 64.375 17.3125 C64.045 17.3125 63.715 17.3125 63.375 17.3125 Z M-175.125 22.375 C-178.58346128 26.84217916 -180.08505054 32.52616762 -181.796875 37.84375 C-183.0296809 41.51890721 -184.44604384 45.12371342 -185.85546875 48.734375 C-186.65079822 51.3989306 -186.76914946 53.54880693 -186.625 56.3125 C-181.32999746 49.95849695 -178.56304129 41.93867937 -175.625 34.3125 C-175.17511719 33.14847656 -174.72523438 31.98445313 -174.26171875 30.78515625 C-173.04525465 27.62920292 -171.8331929 24.47162733 -170.625 21.3125 C-173.52335112 21.02349133 -173.52335112 21.02349133 -175.125 22.375 Z M-298.625 22.3125 C-302.33224895 25.48122226 -303.57892537 28.29002077 -304.9375 32.9375 C-305.45763672 34.65839844 -305.45763672 34.65839844 -305.98828125 36.4140625 C-306.92615004 39.23412241 -306.92615004 39.23412241 -305.625 41.3125 C-305.191875 40.57 -304.75875 39.8275 -304.3125 39.0625 C-302.625 36.3125 -302.625 36.3125 -301.0625 34.375 C-298.7883317 31.11206288 -297.36889472 27.93450009 -298 23.9375 C-298.20625 23.40125 -298.4125 22.865 -298.625 22.3125 Z M-177.20703125 56.53125 C-178.74948315 58.46887552 -179.21641194 59.89280969 -179.625 62.3125 C-177.5199521 63.29111264 -177.5199521 63.29111264 -174.625 63.3125 C-170.40132793 61.40609549 -165.54351751 58.66113969 -163.625 54.3125 C-163.85368094 50.62434707 -163.85368094 50.62434707 -164.625 47.3125 C-169.02663748 47.3125 -174.30009256 53.70773339 -177.20703125 56.53125 Z M-129.625 47.3125 C-130.2025 47.93125 -130.78 48.55 -131.375 49.1875 C-133.625 51.3125 -133.625 51.3125 -135.75 52.25 C-138.40112377 53.75230347 -138.6800792 55.47773759 -139.625 58.3125 C-140.27713539 59.65300052 -140.93879969 60.98911368 -141.625 62.3125 C-138.6530615 61.18798273 -136.29059313 60.08956209 -133.625 58.3125 C-133.625 57.6525 -133.625 56.9925 -133.625 56.3125 C-133.00625 56.10625 -132.3875 55.9 -131.75 55.6875 C-128.77846355 53.76474112 -128.49475341 51.64655473 -127.625 48.3125 C-128.285 47.9825 -128.945 47.6525 -129.625 47.3125 Z M-44.625 50.3125 C-46.78355029 52.36297267 -48.92631521 54.42644681 -51.0625 56.5 C-51.67416016 57.07814453 -52.28582031 57.65628906 -52.91601562 58.25195312 C-57.28367988 62.48093559 -57.28367988 62.48093559 -58.625 68.3125 C-52.54304243 69.66176294 -52.54304243 69.66176294 -46.66015625 68.37109375 C-44.03539347 66.22122693 -42.70095679 64.54037037 -41.625 61.3125 C-41.55697033 59.58454648 -41.54004355 57.85414635 -41.5625 56.125 C-41.57152344 55.22394531 -41.58054687 54.32289063 -41.58984375 53.39453125 C-41.60144531 52.70746094 -41.61304688 52.02039063 -41.625 51.3125 C-42.615 50.9825 -43.605 50.6525 -44.625 50.3125 Z M-214.625 53.3125 C-216.26176257 55.2725281 -216.26176257 55.2725281 -217.625 57.3125 C-216.635 58.7975 -216.635 58.7975 -215.625 60.3125 C-214.965 60.3125 -214.305 60.3125 -213.625 60.3125 C-213.295 58.0025 -212.965 55.6925 -212.625 53.3125 C-213.285 53.3125 -213.945 53.3125 -214.625 53.3125 Z M-187.625 56.3125 C-186.625 58.3125 -186.625 58.3125 -186.625 58.3125 Z M-222.625 62.3125 C-224.91156363 64.87345126 -225.95680813 66.97154065 -226.625 70.3125 C-226.955 70.9725 -227.285 71.6325 -227.625 72.3125 C-227.66522391 74.6454866 -227.66820247 76.97956666 -227.625 79.3125 C-223.47768438 79.46090471 -223.47768438 79.46090471 -219.625 78.3125 C-216.85297713 75.01274893 -213.625 70.76384272 -213.625 66.3125 C-215.295625 65.3225 -215.295625 65.3225 -217 64.3125 C-217.62648438 63.94125 -218.25296875 63.57 -218.8984375 63.1875 C-220.59972667 62.16181652 -220.59972667 62.16181652 -222.625 62.3125 Z " fill="#313131" transform="translate(354.625,107.6875)"/>
<path d="M0 0 C1.9375 0.8125 1.9375 0.8125 4 2 C5.31223496 5.93670488 4.24296256 8.12488144 3 12 C-0.36720387 10.60667426 -1.9859524 9.0210714 -4 6 C-2.84826645 3.53199953 -1.95216435 1.95216435 0 0 Z " fill="#323232" transform="translate(379,132)"/>
</svg>
