<svg xmlns="http://www.w3.org/2000/svg" viewBox="0 0 634.354 97.223"><defs><style>.a{stroke:#000;stroke-linecap:round;stroke-width:0.709px;fill-rule:evenodd;}</style></defs><title>mySVG</title><path d="M82.379,6.469h.33a39.75,39.75,0,0,1,5.14.279l.176.023a47.893,47.893,0,0,1,15.443,4.783l.239.12a40.349,40.349,0,0,1,5.682,3.533,28.91,28.91,0,0,0,12.122,5.122l.23.039a27.443,27.443,0,0,0,4.473.309h.268a24.832,24.832,0,0,0,4.1-.284l.308-.052a64.024,64.024,0,0,0,10.893-3.435q1.942-.709,3.889-1.408,2.748-.99,5.492-1.989,1.719-.625,3.441-1.247l.175-.063,1.844-.665.31-.111.61-.219c.484-.174.966-.35,1.446-.535l.7-.265c.163-.062.325-.126.487-.19a2.878,2.878,0,0,1,2-.228,1.917,1.917,0,0,1,.765.71,3.758,3.758,0,0,1,.054.676l.008.177a1.242,1.242,0,0,1-.413.983,4.654,4.654,0,0,1-.995.594l-.535.269-.295.147c-.332.167-.663.337-.993.507l-.179.093-.368.19-.966.5-.2.1-2.708,1.389q-1.377.7-2.751,1.413-1.694.872-3.388,1.739l-2.962,1.522-3.154,1.62-.211.108-1.7.869-1.483.76-.21.108-3.128,1.607q-1.6.823-3.2,1.645-1.482.759-2.963,1.521t-2.963,1.522l-1.885.967-.209.107-1.22.626-.373.191q-1.335.685-2.661,1.393c.108.334.228.656.368.978a43.408,43.408,0,0,1,3.322,12.237l.03.244c.927,8.112-.788,16.342-8.78,30.565q-.9,1.131-1.879,2.2c-.116.129-.232.258-.346.389-.456.522-.941,1.013-1.43,1.5l-.209.211c-.416.414-.842.807-1.288,1.189l-.3.264c-.788.7-1.605,1.342-2.449,1.967l-.191.143a41.122,41.122,0,0,1-23.761,8.285l-.312,0-.992,0H82.5a37.467,37.467,0,0,1-5.3-.279l-.183-.026a41.527,41.527,0,0,1-21.366-9.286c-.228-.2-.462-.385-.7-.573-.967-.789-1.852-1.679-2.736-2.558l-.178-.178c-.384-.384-.744-.784-1.1-1.2l-.264-.3c-.7-.788-1.342-1.6-1.967-2.448l-.143-.192a43.4,43.4,0,0,1-2.861-4.443,2.69,2.69,0,0,0-.892.313l-.28.147-.151.08q-.328.172-.658.344l-.36.189c-.684.358-1.372.709-2.06,1.061l-.9.461-.456.234q-1.193.609-2.384,1.221l-.209.107-3.118,1.6q-1.6.824-3.2,1.645-1.481.759-2.962,1.521-1.694.871-3.388,1.74-1.482.759-2.962,1.521-1.693.872-3.388,1.74-1.482.759-2.963,1.521-1.692.872-3.388,1.74-1.389.712-2.779,1.427l-1.1.565-1.039.534-1.166.6-.451.232q-.312.162-.626.322l-.189.1a2.447,2.447,0,0,1-1.578.318,1.709,1.709,0,0,1-.977-.856,2.142,2.142,0,0,1,.033-1.306,6.321,6.321,0,0,1,1.743-1.453l.5-.34.254-.171q.547-.369,1.092-.744l.2-.139q.978-.669,1.954-1.342,1.2-.823,2.4-1.644.992-.678,1.98-1.359,1.2-.823,2.4-1.644l1.812-1.244,1.026-.706.849-.584,2.062-1.414q.908-.621,1.813-1.244l.682-.469.344-.237q.426-.292.855-.583a33.037,33.037,0,0,0,4.8-3.943l.126-.125a19.337,19.337,0,0,0,1.6-1.8l.15-.19a29.657,29.657,0,0,0,6.225-18.272,48.021,48.021,0,0,1,5.9-22.73l.105-.188a42.738,42.738,0,0,1,4.7-6.677l.141-.169a20.686,20.686,0,0,1,1.423-1.567c.152-.152.292-.31.431-.473a16.962,16.962,0,0,1,1.857-1.838c.186-.162.367-.328.548-.5.518-.482,1.053-.937,1.607-1.378l.133-.107C59.664,11.9,66.559,8.7,78.839,6.577l.272-.027C80.2,6.455,81.289,6.47,82.379,6.469ZM60.989,15.33l-.254.15a41.412,41.412,0,0,0-5.581,3.969l-.133.111A32.259,32.259,0,0,0,51.1,23.305c-.183.21-.372.413-.562.617-.453.5-.865,1.021-1.276,1.554q-.171.219-.346.435a39.327,39.327,0,0,0-4.666,7.526q-.132.27-.267.54a42.11,42.11,0,0,0-3.969,17.912C39.9,59.029,38.072,65.87,33.7,71.625l-.122.162c-.268.352-.542.7-.822,1.039l-.118.145c-.623.761-1.3,1.465-1.995,2.162l-.125.126a20.64,20.64,0,0,1-1.8,1.6l-.336.28a28.84,28.84,0,0,1-2.477,1.823c-.286.191-.568.387-.851.584l-.269.186-.187.13.172.086c.205-.087.4-.179.6-.281l.184-.092.586-.3.378-.191c.726-.366,1.447-.742,2.166-1.122.77-.406,1.545-.8,2.321-1.195l1.333-.68.266-.136q1.106-.564,2.209-1.134,1.516-.781,3.035-1.56,1.414-.724,2.827-1.451l.735-.378q.888-.454,1.772-.919.435-.23.87-.456.209-.11.416-.22.288-.155.579-.3l.169-.092a2.127,2.127,0,0,1,1.632-.214c.637.23.932.989,1.223,1.545a37.383,37.383,0,0,0,4.763,6.86l.159.185c.145.169.293.335.441.5l.193.217c.5.553,1.014,1.085,1.54,1.612l.194.2c.4.4.818.781,1.249,1.151l.269.238c.846.743,1.741,1.414,2.648,2.079l.185.136a38.547,38.547,0,0,0,18.2,7.008l.177.021c7.244.875,14.531-.423,27.52-7.251l.178-.13a35.3,35.3,0,0,0,2.954-2.422c.118-.107.238-.214.359-.318.478-.409.925-.846,1.368-1.291l.372-.372c.449-.448.881-.9,1.291-1.388l.22-.251a37.437,37.437,0,0,0,4.5-6.529l.122-.223c4.2-7.717,5.738-16.729,3.311-29.641a36.339,36.339,0,0,0-2.243-5.863l-.133-.267c-.083-.165-.168-.33-.254-.493a2.379,2.379,0,0,1-.241-1.789c.333-.719,1.352-1.053,2.021-1.391l.244-.124.516-.262,1.089-.554.549-.279q1.116-.567,2.228-1.142l.675-.348.169-.088,2.17-1.114.212-.109,1.279-.656,1.909-.978.211-.108q1.471-.755,2.943-1.512l3.087-1.586.439-.225c1.458-.749,1.458-.749,2.181-1.107a1.156,1.156,0,0,0-.886.129l-.388.144-.206.078a31.46,31.46,0,0,1-12.337,2.224l-.281-.012a33.622,33.622,0,0,1-9.244-1.7l-.258-.087a33.21,33.21,0,0,1-4.29-1.887l-.228-.116a31.532,31.532,0,0,1-4.165-2.689,35.048,35.048,0,0,0-5.547-3.283c-.2-.1-.406-.2-.608-.3A41.35,41.35,0,0,0,82.6,9.473h-.254A42.175,42.175,0,0,0,60.989,15.33Z" transform="translate(-2 -1.235)"/><path d="M114.109,34.553a2.2,2.2,0,0,1,.858.745,2.074,2.074,0,0,1-.043,1.513,6.6,6.6,0,0,1-2.086,1.346l-.624.306-.3.148c-.358.18-.707.372-1.055.57a.529.529,0,0,1-.352.091l.068.157a31.3,31.3,0,0,1,.465,24.043c-.292.728-.619,1.44-.962,2.146l-.111.227a27.917,27.917,0,0,1-3.751,5.694l-.2.246c-.606.742-1.277,1.419-1.953,2.1l-.144.145a20.71,20.71,0,0,1-1.91,1.716l-.361.293a29.129,29.129,0,0,1-4.7,3.054l-.172.09a30.514,30.514,0,0,1-13.3,3.514l-.21.006a30.784,30.784,0,0,1-20.214-6.957l-.141-.114a30.608,30.608,0,0,1-2.251-2.085l-.139-.138a20.735,20.735,0,0,1-1.674-1.868c-.084-.1-.168-.2-.253-.3a31.12,31.12,0,0,1-2.15-3.046l-.136-.208c-.293-.458-.293-.458-.293-.65-.937.464-1.87.934-2.794,1.425l-.373.2c-.121.063-.242.128-.362.194a2.184,2.184,0,0,1-1.448.244,1.776,1.776,0,0,1-.944-.773,1.964,1.964,0,0,1,.053-1.491,5.222,5.222,0,0,1,1.765-1.185c.656-.32,1.308-.647,1.953-.988.845-.447,1.7-.883,2.547-1.316l1.333-.68.267-.136q1.106-.564,2.208-1.133,1.517-.783,3.036-1.561L66.439,58.5q1.575-.811,3.153-1.62l.211-.108,1.7-.87,1.482-.759.211-.108q1.565-.8,3.127-1.607,1.6-.823,3.2-1.645,1.48-.759,2.962-1.521,1.693-.871,3.388-1.74,1.482-.759,2.962-1.521,1.694-.872,3.388-1.74,1.482-.759,2.963-1.521,1.692-.871,3.388-1.74,1.48-.759,2.962-1.521,1.576-.811,3.154-1.62l.21-.108,1.7-.87,1.273-.652.624-.32q1.051-.539,2.1-1.08l.419-.216.787-.407.354-.182.16-.084A2.671,2.671,0,0,1,114.109,34.553Zm-6.921,6.411-.305.152-.16.081-.464.233q-.888.445-1.764.911c-.842.445-1.691.879-2.54,1.311l-1.333.68-.267.136q-1.106.564-2.208,1.133-1.517.783-3.035,1.561-1.594.818-3.186,1.636-1.694.871-3.388,1.74-1.478.756-2.952,1.516-1.747.9-3.5,1.794-1.615.827-3.23,1.657-1.489.768-2.981,1.531-1.588.814-3.175,1.631-1.694.871-3.388,1.739l-3.146,1.616q-1.5.773-3,1.542-2.249,1.152-4.5,2.311a6.013,6.013,0,0,0,.547,1.057l.114.181a25.8,25.8,0,0,0,2.889,3.666c.2.216.393.436.585.658a7.724,7.724,0,0,0,.823.8c.226.2.441.4.658.605a26.989,26.989,0,0,0,18.2,6.8h.275a23.609,23.609,0,0,0,4.054-.284l.263-.044a27.569,27.569,0,0,0,12.952-5.877l.148-.122a16.424,16.424,0,0,0,1.436-1.291c.138-.137.283-.26.433-.384a6.119,6.119,0,0,0,.731-.753q.181-.209.372-.409a27.316,27.316,0,0,0,6.749-14.2l.043-.233A24.854,24.854,0,0,0,109.9,47.6l-.045-.255a29.45,29.45,0,0,0-2.015-6.611A1.4,1.4,0,0,0,107.188,40.964Z" transform="translate(-2 -1.235)"/><path d="M81.79,21.246c7.317-.176,15.351,2.335,20.72,7.446a1.6,1.6,0,0,1,.481,1.044,1.846,1.846,0,0,1-.381,1.041,4.666,4.666,0,0,1-1.011.654l-.172.088-.566.288-.4.205-.849.432q-.949.483-1.9.971l-.634.325-2.75,1.413q-1.693.872-3.388,1.74-1.482.759-2.963,1.521-1.693.871-3.388,1.74-1.482.759-2.962,1.521-1.694.872-3.388,1.74-1.476.756-2.952,1.516-1.747.9-3.5,1.794-1.617.827-3.23,1.658L65.58,49.914q-1.587.813-3.175,1.63-1.8.924-3.594,1.845-1.055.54-2.107,1.084l-.413.213-.772.4c-1.881.972-1.881.972-2.645.744a1.618,1.618,0,0,1-.86-.93,7.146,7.146,0,0,1-.175-1.435l-.01-.2a30.887,30.887,0,0,1,7.959-21.967c.33-.354.672-.7,1.016-1.039q.224-.222.445-.446a19.586,19.586,0,0,1,1.8-1.6l.2-.158a28.581,28.581,0,0,1,2.635-1.9l.15-.1c.374-.234.754-.458,1.137-.678l.206-.118A30.679,30.679,0,0,1,81.79,21.246ZM78.238,24.6l-.269.045a27.289,27.289,0,0,0-12.946,5.876l-.148.122a16.749,16.749,0,0,0-1.437,1.291c-.137.138-.282.26-.432.384a6.119,6.119,0,0,0-.731.753q-.181.208-.373.409a26.512,26.512,0,0,0-7.01,18.351l0,.144.216-.108.15-.075.351-.175L56.838,51c.967-.482,1.933-.965,2.886-1.473.537-.284,1.079-.557,1.625-.825.476-.236.947-.482,1.418-.731.851-.45,1.709-.889,2.567-1.326l1.333-.679.267-.136q1.106-.564,2.208-1.134,1.517-.782,3.035-1.56,1.594-.818,3.186-1.636,1.694-.871,3.388-1.74,1.482-.759,2.963-1.521,1.692-.872,3.388-1.74,1.48-.759,2.962-1.521,1.587-.818,3.175-1.631,3.672-1.883,7.337-3.776c-.1-.306-.174-.339-.44-.509l-.228-.146-.249-.155L97.4,28.6a30.368,30.368,0,0,0-4.661-2.376l-.211-.085a27.58,27.58,0,0,0-5.8-1.545l-.249-.043A25,25,0,0,0,78.238,24.6Z" transform="translate(-2 -1.235)"/><path d="M112.377,85.334a1.664,1.664,0,0,1,.874.965,1.766,1.766,0,0,1-.211,1.3,15.615,15.615,0,0,1-2.793,2.3l-.19.138c-6.156,4.485-13.468,7.42-34.373,8.416a47.984,47.984,0,0,1-22.161-9.67,2.165,2.165,0,0,1-.014-1.4,1.616,1.616,0,0,1,1.044-.827,1.646,1.646,0,0,1,1.37.33q.6.426,1.2.862A38.545,38.545,0,0,0,60.474,89.9l.171.1A44.117,44.117,0,0,0,79.44,95.739l.19.015c7.545.582,15.235-1.032,28.3-8l.2-.142a28.249,28.249,0,0,0,2.3-1.8A1.969,1.969,0,0,1,112.377,85.334Z" transform="translate(-2 -1.235)"/><path d="M82.368,1.235h.3a51.437,51.437,0,0,1,22.842,5.5q.2.1.409.209c1.186.6,2.34,1.242,3.468,1.947l.167.1c1.169.729,1.169.729,1.378,1.356a2.082,2.082,0,0,1-.15,1.239l-.193.22-.167.193a1.48,1.48,0,0,1-1.206.321,3.2,3.2,0,0,1-.553-.246L108.509,12c-.45-.239-.878-.51-1.306-.784-.721-.457-1.473-.856-2.226-1.258q-.294-.158-.585-.32a39.48,39.48,0,0,0-5.644-2.46l-.318-.114C92.075,4.786,85.216,3.924,62.362,8.808l-.253.116a41.513,41.513,0,0,0-3.694,1.944L58.192,11c-.942.546-1.851,1.13-2.745,1.752-1.366.949-1.366.949-2.032.83a1.633,1.633,0,0,1-1.1-.9,1.93,1.93,0,0,1,.01-1.313,6.941,6.941,0,0,1,2.017-1.619l.165-.108C60.832,5.524,68,2.709,82.368,1.235Z" transform="translate(-2 -1.235)"/><path d="M93.293,18l.177.052a3.494,3.494,0,0,1,1.926,1.1,1.74,1.74,0,0,1,0,1.422,1.489,1.489,0,0,1-.772.772,3.343,3.343,0,0,1-2-.269,33.405,33.405,0,0,0-25.168,2.079,32.488,32.488,0,0,0-5.1,3.339l-.241.191c-.514.413-1,.848-1.485,1.3-.215.2-.434.39-.655.582a22.018,22.018,0,0,0-2.6,2.821l-.277.347a31.783,31.783,0,0,0-1.954,2.743l-.1.161a31.6,31.6,0,0,0-1.973,3.688l-.136.294q-.129.28-.254.563a2.059,2.059,0,0,1-.967,1.129,1.581,1.581,0,0,1-2.059-.858,4.027,4.027,0,0,1,.729-2.735l.081-.166a35.891,35.891,0,0,1,4.768-7.4l.139-.166a18.612,18.612,0,0,1,1.359-1.5c.139-.14.263-.287.39-.439a18.588,18.588,0,0,1,1.63-1.582l.157-.142C65.467,19.4,74.336,16.231,93.293,18Z" transform="translate(-2 -1.235)"/><path d="M158.774,68.59a9.356,9.356,0,0,1,2.362,2.777l.142.249a9.1,9.1,0,0,1,.611,6.812,9.32,9.32,0,0,1-2.126,3.581l-.17.191a8.585,8.585,0,0,1-5.767,2.592,9.47,9.47,0,0,1-3.331-.381l-.288-.091a9.092,9.092,0,0,1-1-16.728A9.313,9.313,0,0,1,158.774,68.59Zm-10.219,3.285a6.482,6.482,0,0,0-1.321,4.813,5.855,5.855,0,0,0,2.109,3.716,6.363,6.363,0,0,0,4.67,1.347,6.23,6.23,0,0,0,4.017-2.344,6.163,6.163,0,0,0,1.153-4.576,6.043,6.043,0,0,0-2.351-3.919A6.162,6.162,0,0,0,148.555,71.875Z" transform="translate(-2 -1.235)"/><path d="M129,49.622a1.607,1.607,0,0,1,.481,1.212c0,.13,0,.26,0,.391l0,.214c0,.234,0,.467,0,.7v.244c-.008,6.947-1.708,13.758-10.921,29.711l-.129.155q-.741.888-1.528,1.733l-.146.159c-.949,1.015-.949,1.015-1.6,1.124a1.724,1.724,0,0,1-1.225-.467,1.706,1.706,0,0,1-.435-1.245,3.651,3.651,0,0,1,1.269-1.784c.28-.279.535-.575.791-.876l.208-.24c.65-.753,1.256-1.537,1.851-2.335l.139-.185a42.919,42.919,0,0,0,3.208-5.049l.127-.231a43.311,43.311,0,0,0,2.877-6.549l.09-.259a43.3,43.3,0,0,0,2.082-9.475l.021-.2c.13-1.225.208-2.449.225-3.68l0-.206c0-.276.008-.552.01-.828q0-.309.008-.618v-.187a1.818,1.818,0,0,1,.524-1.263A1.579,1.579,0,0,1,129,49.622Z" transform="translate(-2 -1.235)"/><path d="M106.14,33.671a1.783,1.783,0,0,1,.659.785,1.938,1.938,0,0,1-.2,1.32,3.646,3.646,0,0,1-1.23.9l-.172.088-.563.285-.4.2-.846.429c-.633.321-1.264.646-1.9.97l-.846.434-2.539,1.3q-1.692.872-3.388,1.74-1.476.756-2.951,1.516-1.748.9-3.5,1.794-1.615.826-3.23,1.658-1.489.767-2.981,1.53l-3,1.541-.548.282-1.786.92-.886.456-.426.22-.59.3-.178.092a1.9,1.9,0,0,1-1.6.213,1.8,1.8,0,0,1-.9-1.024,1.777,1.777,0,0,1,.283-1.391,6.793,6.793,0,0,1,2.011-1.172c.491-.242.977-.494,1.461-.75.847-.448,1.7-.885,2.554-1.32l1.331-.678.268-.137q1.154-.588,2.3-1.181l.722-.372.18-.093q1.114-.573,2.231-1.144l3.175-1.631q1.692-.872,3.388-1.739L95.015,38.5q1.48-.762,2.963-1.522l1.886-.967.207-.106,1.209-.621.383-.2c.791-.406,1.581-.814,2.363-1.238A2.011,2.011,0,0,1,106.14,33.671Z" transform="translate(-2 -1.235)"/><path d="M19.626,53.432l.214.166a7.181,7.181,0,0,1,2.275,4.382A7.663,7.663,0,0,1,20.4,63.73l-.165.216a7.356,7.356,0,0,1-4.551,2.319,7.564,7.564,0,0,1-5.654-1.77l-.186-.164-.159-.138a7.336,7.336,0,0,1-2.175-4.874A7.847,7.847,0,0,1,9.8,53.625,7.361,7.361,0,0,1,19.626,53.432ZM11.607,56.1a4.905,4.905,0,0,0-1.071,3.294,4.571,4.571,0,0,0,1.538,2.88,4.71,4.71,0,0,0,3.519.944,4.324,4.324,0,0,0,2.714-1.684,4.277,4.277,0,0,0-1.341-6.3A4.422,4.422,0,0,0,11.607,56.1Z" transform="translate(-2 -1.235)"/><path d="M49.286,14.831a1.922,1.922,0,0,1,.831.778,2.081,2.081,0,0,1-.042,1.287,3.972,3.972,0,0,1-.585.665c-.892.869-.892.869-1.728,1.79-.182.209-.37.41-.559.611-.521.555-1.015,1.122-1.489,1.718l-.237.291A45.906,45.906,0,0,0,37.7,35.815l-.075.218q-.185.532-.363,1.067l-.133.393-.058.181a2.151,2.151,0,0,1-.855,1.159,1.881,1.881,0,0,1-1.338.021,1.6,1.6,0,0,1-.834-.955,4.791,4.791,0,0,1,.413-2.322l.129-.364A50.274,50.274,0,0,1,43.1,20.029c.178-.215.352-.433.527-.65.329-.4.675-.787,1.027-1.169.174-.19.344-.383.512-.579.256-.3.53-.569.809-.843.157-.161.3-.326.446-.5a11.486,11.486,0,0,1,.837-.858l.126-.122A1.772,1.772,0,0,1,49.286,14.831Z" transform="translate(-2 -1.235)"/><path d="M70.257,51.716a1.861,1.861,0,0,1,.944.944,1.927,1.927,0,0,1-.086,1.287,7.532,7.532,0,0,1-2.692,1.7l-.79.39-.2.1c-.539.267-1.071.546-1.6.828-.769.406-1.543.8-2.318,1.2q-.667.339-1.333.68l-.267.136Q60.8,59.535,59.7,60.1l-.663.342-.168.087q-1.185.61-2.371,1.218l-.224.115-.628.322-.189.1-.477.243-.2.106a2.3,2.3,0,0,1-1.175.066,2.088,2.088,0,0,1-.858-.772,2.023,2.023,0,0,1,.043-1.486,6.446,6.446,0,0,1,2.043-1.325l.6-.293.157-.078c.5-.246.991-.506,1.483-.766.775-.41,1.555-.807,2.336-1.2l1.333-.68.266-.136q1.106-.564,2.208-1.134l.667-.343.168-.087q1.045-.54,2.093-1.076l.434-.223q1.019-.524,2.041-1.04l.286-.144A2.138,2.138,0,0,1,70.257,51.716Z" transform="translate(-2 -1.235)"/><path d="M30.771,82.888a1.742,1.742,0,0,1,.682,1.151,1.824,1.824,0,0,1-.285,1.113,7.925,7.925,0,0,1-1.939,1.168l-.244.124-.516.262-1.089.554-.549.278q-1.114.569-2.228,1.143l-.673.347-.17.088-1.979,1.016-1.9.973-.21.107-1.219.626-.373.191c-.536.275-1.071.551-1.6.834l-.2.107-.385.206a2.522,2.522,0,0,1-1.586.332,1.632,1.632,0,0,1-.944-.773,1.673,1.673,0,0,1,0-1.373,1.416,1.416,0,0,1,.652-.686l.233-.132.23-.126.193-.105q.3-.162.606-.318l.246-.128c1.1-.571,2.211-1.134,3.317-1.7q1.463-.747,2.922-1.5l2.208-1.136.214-.11,1.069-.547q1.014-.519,2.025-1.044l.37-.192.684-.357.306-.16.265-.138A2.076,2.076,0,0,1,30.771,82.888Z" transform="translate(-2 -1.235)"/><path d="M94.219,72.218a1.941,1.941,0,0,1,.839.866,1.819,1.819,0,0,1-.2,1.419c-1.249,1.833-5.574,2.548-7.566,2.928-.613.11-1.228.209-1.846.287l-.206.026a24.079,24.079,0,0,1-2.605.086h-.264a25.63,25.63,0,0,1-3.335-.178l-.314-.04c-1.585-.237-1.585-.237-2.035-.748a1.777,1.777,0,0,1-.338-1.293,2.007,2.007,0,0,1,.869-1.137,4.723,4.723,0,0,1,1.958.059,20.015,20.015,0,0,0,3.271.242h.206A23.378,23.378,0,0,0,92.79,72.322,1.728,1.728,0,0,1,94.219,72.218Z" transform="translate(-2 -1.235)"/><path d="M50.005,42.533a2.136,2.136,0,0,1,.515.344l.15.118a1.972,1.972,0,0,1,.279,1.426c-.058.36-.13.716-.206,1.073-.19.911-.356,1.821-.465,2.746l-.029.246c-.027.247-.05.494-.073.741l-.026.262c-.062.728-.06,1.448-.05,2.178l0,.315c.006.435.011.869.021,1.3.007.32.01.64.013.961l.009.3a1.729,1.729,0,0,1-.438,1.335,1.575,1.575,0,0,1-2.3-.16c-.657-.985-.428-2.546-.429-3.685v-.271c.007-7.082.007-7.082,1.394-8.884A1.769,1.769,0,0,1,50.005,42.533Z" transform="translate(-2 -1.235)"/><path d="M106.913,44.648c.885.649.983,2.186,1.149,3.2,1.029,6.763,1.029,6.763-.3,9.043a1.837,1.837,0,0,1-.951.662,1.645,1.645,0,0,1-1.2-.257A1.584,1.584,0,0,1,105,56.039a11.431,11.431,0,0,1,.121-1.478,21.906,21.906,0,0,0-.457-7.808,2.658,2.658,0,0,1,.02-1.5A1.608,1.608,0,0,1,106.913,44.648Z" transform="translate(-2 -1.235)"/><path d="M139.252,27.079a1.757,1.757,0,0,1,.773,1.037,1.672,1.672,0,0,1-.216,1.2,4.711,4.711,0,0,1-1.79,1.136q-.882.429-1.748.888c-.879.465-1.764.919-2.651,1.37l-.787.4-1.012.514q-.44.224-.875.45l-.367.189-.162.086a1.9,1.9,0,0,1-1.376.2,1.993,1.993,0,0,1-.971-1.009,2.009,2.009,0,0,1,.15-1.325A6.434,6.434,0,0,1,130.1,31.04l.245-.128q1.659-.858,3.324-1.7,1.148-.585,2.291-1.177l.188-.1q.427-.222.854-.445l.3-.156.255-.133A1.852,1.852,0,0,1,139.252,27.079Z" transform="translate(-2 -1.235)"/><path d="M98.725,20.253A26.873,26.873,0,0,1,104.583,24l.259.2c1.2.956,1.2.956,1.313,1.689a1.615,1.615,0,0,1-.4,1.207,1.413,1.413,0,0,1-1.116.468,2.4,2.4,0,0,1-1.532-.791,30.317,30.317,0,0,0-4.824-3.241q-.434-.242-.862-.493l-.212-.124a1.684,1.684,0,0,1-.524-.548l-.107-.156a1.763,1.763,0,0,1,.038-1.19A1.54,1.54,0,0,1,98.725,20.253Z" transform="translate(-2 -1.235)"/><path d="M127.153,38.243a2.517,2.517,0,0,1,.649,1.139l.053.181c.2.683.354,1.375.505,2.069l.044.2c.185.846.362,1.694.508,2.549l.042.237c.227,1.41.227,1.41-.095,1.983a1.638,1.638,0,0,1-1.143.73,1.586,1.586,0,0,1-1.228-.451,2.68,2.68,0,0,1-.583-1.431l-.069-.41-.036-.217a39.834,39.834,0,0,0-.829-3.9c-.388-1.464-.388-1.464-.21-2.068a1.906,1.906,0,0,1,1.035-.933A1.745,1.745,0,0,1,127.153,38.243Z" transform="translate(-2 -1.235)"/><path d="M40.939,77.559a1.663,1.663,0,0,1,.742.931,2.152,2.152,0,0,1-.129,1.228A6.246,6.246,0,0,1,39.592,81q-.432.21-.864.424l-.171.085q-.692.34-1.371.7l-.38.2c-.246.13-.49.262-.734.4-1.232.664-1.232.664-1.857.482a2.045,2.045,0,0,1-.944-.778,1.777,1.777,0,0,1-.015-1.436,5.19,5.19,0,0,1,2.288-1.5l.856-.424.17-.085c.465-.231.925-.472,1.383-.716l.557-.293.327-.173A2.251,2.251,0,0,1,40.939,77.559Z" transform="translate(-2 -1.235)"/><path d="M48.051,79.335a5.456,5.456,0,0,1,1.192,1.22A23.751,23.751,0,0,0,51.2,82.677l.164.159q.153.15.309.3a2.592,2.592,0,0,1,.791,1.336,1.816,1.816,0,0,1-.566,1.4,1.887,1.887,0,0,1-1.373.258,2.942,2.942,0,0,1-1-.709l-.132-.133c-.092-.092-.183-.185-.274-.277-.137-.14-.276-.28-.414-.418-.422-.426-.837-.856-1.227-1.312-.138-.16-.279-.317-.421-.473-1.177-1.31-1.177-1.31-1.3-2.138a1.94,1.94,0,0,1,.606-1.18l.214-.14.156-.107A1.715,1.715,0,0,1,48.051,79.335Z" transform="translate(-2 -1.235)"/><path d="M50.176,62.1a1.681,1.681,0,0,1,.909.935,1.8,1.8,0,0,1-.185,1.417,6.436,6.436,0,0,1-2.043,1.231l-.64.317-.159.078c-.652.323-1.3.663-1.936,1.006l-.15.079-.178.094a1.958,1.958,0,0,1-1.11.078,1.805,1.805,0,0,1-.944-.772,2.06,2.06,0,0,1,.043-1.481,5.474,5.474,0,0,1,1.786-1.2l.5-.246.254-.124c.377-.188.749-.386,1.121-.585C49.346,61.916,49.346,61.916,50.176,62.1Z" transform="translate(-2 -1.235)"/><path d="M66.091,67.828c.223.2.436.409.648.622A20.84,20.84,0,0,0,68.7,70.108c1.287.961,1.287.961,1.47,1.6A1.545,1.545,0,0,1,68.68,73.54a2.932,2.932,0,0,1-1.576-.767l-.183-.14q-.264-.2-.525-.407l-.254-.2c-.473-.376-.922-.777-1.366-1.186l-.164-.149a2.45,2.45,0,0,1-.984-1.621,1.452,1.452,0,0,1,.434-1.114A1.573,1.573,0,0,1,66.091,67.828Z" transform="translate(-2 -1.235)"/><path d="M155.671,18.589a1.516,1.516,0,0,1,.791.845,1.953,1.953,0,0,1-.045,1.235,5.707,5.707,0,0,1-2.377,1.558c-.741.367-1.476.74-2.2,1.136a2.111,2.111,0,0,1-1.344.205,1.609,1.609,0,0,1-.9-.745,2,2,0,0,1-.129-1.229,3.955,3.955,0,0,1,2.023-1.545l.231-.118.479-.245q.366-.186.732-.375l.467-.238.22-.113C154.947,18.283,154.947,18.283,155.671,18.589Z" transform="translate(-2 -1.235)"/><path d="M118.228,27.087a1.788,1.788,0,0,1,.515.343l.193.161a1.428,1.428,0,0,1,.311,1.126,1.491,1.491,0,0,1-.418.944,18.441,18.441,0,0,1-1.867,1.046l-.26.135-.7.364-.3.155a1.548,1.548,0,0,1-2.116-.7,1.853,1.853,0,0,1,.088-1.52c.37-.625,1.375-.951,2-1.256l.3-.148C117.5,26.977,117.5,26.977,118.228,27.087Z" transform="translate(-2 -1.235)"/><path d="M103.141,64.957a1.427,1.427,0,0,1,.611,1.02c.082,1.106-.852,1.947-1.519,2.737-.126.15-.25.3-.374.454a2.238,2.238,0,0,1-1.2.9,1.714,1.714,0,0,1-1.307-.361l-.177-.226-.135-.159a1.694,1.694,0,0,1-.208-1.042,4.038,4.038,0,0,1,1.03-1.545l.348-.412c.107-.128.216-.256.324-.383a5.84,5.84,0,0,0,.443-.663A1.654,1.654,0,0,1,103.141,64.957Z" transform="translate(-2 -1.235)"/><path d="M145.115,24.174a1.535,1.535,0,0,1,.66.853,1.866,1.866,0,0,1-.258,1.459,5.792,5.792,0,0,1-3.358,1.489,1.6,1.6,0,0,1-.932-.459,1.8,1.8,0,0,1-.344-1.373,1.68,1.68,0,0,1,.849-1.055c.509-.28,1.019-.558,1.534-.827l.187-.1A1.8,1.8,0,0,1,145.115,24.174Z" transform="translate(-2 -1.235)"/><path d="M35.1,40.495a1.611,1.611,0,0,1,.74.923,5.609,5.609,0,0,1-.155,1.872l-.043.236a2.547,2.547,0,0,1-.831,1.582,1.43,1.43,0,0,1-.944.257,1.726,1.726,0,0,1-1.2-.772,3.285,3.285,0,0,1-.027-2.2l.039-.232a2.621,2.621,0,0,1,.814-1.549A1.777,1.777,0,0,1,35.1,40.495Z" transform="translate(-2 -1.235)"/><path d="M111.552,30.932a1.47,1.47,0,0,1,.647,1.042,1.545,1.545,0,0,1-.23,1.082,3.2,3.2,0,0,1-1.121.81l-.216.124a2.642,2.642,0,0,1-1.5.391,1.837,1.837,0,0,1-1.03-.687,1.794,1.794,0,0,1-.174-1.352,2.435,2.435,0,0,1,1.338-1.163l.221-.115A1.975,1.975,0,0,1,111.552,30.932Z" transform="translate(-2 -1.235)"/><path class="a" d="M287.846,36.38H251.1a1.082,1.082,0,0,1-.829-.38,1.246,1.246,0,0,1-.346-.864,1.214,1.214,0,0,1,.346-.9,1.13,1.13,0,0,1,.829-.345H273.34V20.768a1.3,1.3,0,0,1,1.243-1.243,1.154,1.154,0,0,1,.9.38,1.245,1.245,0,0,1,.346.863V33.893h12.088a8.115,8.115,0,0,1,4.87,1.209,3.655,3.655,0,0,1,1.589,3.143,6.827,6.827,0,0,1-1.761,4.076,66.069,66.069,0,0,1-6.6,7.149q-3.834,3.627-8.221,7.15t-8.738,6.666q-4.351,3.142-8.22,5.561a17.291,17.291,0,0,0,6.148,4.11,30.42,30.42,0,0,0,8.116,1.8q4.663.449,10.811.449,4.489,0,7.288-.1t4.939-.276q2.14-.173,4.559-.311a1.34,1.34,0,0,1,1.174.38,1.2,1.2,0,0,1,.346,1,1.132,1.132,0,0,1-.449,1,2.4,2.4,0,0,1-1.14.38q-2.28.138-6.01.207t-10.707.069q-6.009,0-10.673-.414a35.19,35.19,0,0,1-8.289-1.658,18.49,18.49,0,0,1-6.459-3.8,26.207,26.207,0,0,1-5.181-6.77,59.57,59.57,0,0,1-3.833,6.7,61.883,61.883,0,0,1-4.663,6.148,1.231,1.231,0,0,1-1.865.207,1.336,1.336,0,0,1-.38-.9,1.107,1.107,0,0,1,.311-.9,43.805,43.805,0,0,0,6.6-9.015A61.412,61.412,0,0,0,255.932,57.1a1.245,1.245,0,0,1,2.349.829q-.416,1.105-.864,2.245t-.932,2.245q.69,1.313,1.381,2.487a19.221,19.221,0,0,0,1.451,2.141q3.661-2.278,7.944-5.319t8.6-6.562q4.317-3.523,8.117-7.15a64.158,64.158,0,0,0,6.424-7.011q1.658-2.211.967-3.419T287.846,36.38ZM218.492,80.244V41.7q-1.588,3.177-3.73,6.942T210.271,56.1q-2.347,3.694-4.628,6.838t-4.075,5.216a1.346,1.346,0,0,1-.9.483,1.213,1.213,0,0,1-.967-.276,1.158,1.158,0,0,1-.449-.829,1.23,1.23,0,0,1,.31-.9q2.073-2.349,4.663-5.941t5.25-7.771q2.66-4.179,5.043-8.358t3.972-7.7v-1.1H206.61a1.021,1.021,0,0,1-.794-.345,1.2,1.2,0,0,1-.311-.829.977.977,0,0,1,1.105-1.105h11.882V19.456a1.154,1.154,0,0,1,.38-.9,1.245,1.245,0,0,1,.863-.346,1.186,1.186,0,0,1,1.244,1.244V33.479h14.3a.976.976,0,0,1,1.105,1.105,1.2,1.2,0,0,1-.311.829,1.021,1.021,0,0,1-.794.345h-14.3V37q2.416,4.905,5.25,9.844t5.629,9.257q2.8,4.317,5.078,7.564a1.26,1.26,0,0,1-.346,1.934,1.749,1.749,0,0,1-1,.242,1.128,1.128,0,0,1-.864-.518q-1.864-2.764-4.283-6.632t-4.87-8.324q-2.452-4.455-4.593-8.876V80.244a1.25,1.25,0,0,1-.346.864,1.157,1.157,0,0,1-.9.38,1.3,1.3,0,0,1-1.243-1.244ZM601.737,74.58V28.988q0-1.381,1.175-1.381h.138a1.924,1.924,0,0,1,1.658.9L633.582,71.61V28.988q0-1.381,1.244-1.381,1.175,0,1.174,1.381V74.58q0,1.382-1.174,1.382h-.208a1.924,1.924,0,0,1-1.657-.9L604.086,31.89V74.58q0,1.382-1.174,1.382T601.737,74.58ZM188.926,80.244V42.251q-1.657,3.869-3.9,8.152t-4.731,8.254a85.128,85.128,0,0,1-4.905,7.081,1.489,1.489,0,0,1-.9.518A1.319,1.319,0,0,1,173,65.185a1.146,1.146,0,0,1,.242-.829q2.071-2.625,4.282-6.009t4.318-7.15q2.106-3.765,3.937-7.5t3.143-6.908V35.758H175.249a1.024,1.024,0,0,1-.795-.345,1.2,1.2,0,0,1-.31-.829.976.976,0,0,1,1.1-1.105h13.677V19.456a1.157,1.157,0,0,1,.38-.9,1.247,1.247,0,0,1,.864-.346,1.185,1.185,0,0,1,1.243,1.244V33.479h11.4a1.2,1.2,0,0,1,.829.31,1.023,1.023,0,0,1,.345.8,1.178,1.178,0,0,1-1.174,1.174h-11.4v4.974q1.935,2.487,4.214,5.146t4.559,5.008q2.28,2.349,4.076,4.007.966.828,0,1.8a1.116,1.116,0,0,1-.9.414,1.325,1.325,0,0,1-.967-.414q-1.521-1.52-3.489-3.661t-3.9-4.525q-1.933-2.383-3.592-4.594V80.244a1.249,1.249,0,0,1-.345.864,1.158,1.158,0,0,1-.9.38,1.3,1.3,0,0,1-1.244-1.244ZM313.06,47.432a2.477,2.477,0,0,1-1.105.311,1.216,1.216,0,0,1-1.037-.449,1.778,1.778,0,0,1-.207-1.1,1.076,1.076,0,0,1,.622-.9q3.453-2.073,7.184-4.836t7.426-5.837q3.7-3.073,6.977-6.148t5.7-5.768q2.278-2.556,4.662-2.59t4.94,2.59q3.177,3.178,7.529,7.115t9.429,7.91a119.414,119.414,0,0,0,10.4,7.288,1.215,1.215,0,0,1,.519.828,1.309,1.309,0,0,1-.242,1.037,1.276,1.276,0,0,1-1,.483,2.126,2.126,0,0,1-1.071-.276q-4.9-3.108-9.947-7.046t-9.567-8.048q-4.525-4.11-7.91-7.564-1.726-1.8-2.935-1.83t-2.936,1.761q-3.592,3.8-8.186,7.979t-9.533,8.116A113.584,113.584,0,0,1,313.06,47.432Zm241.7,28.53H533.005q-1.383,0-1.382-1.244v-.207a2.859,2.859,0,0,1,.553-1.727L553.037,45.36H534.455q-1.382,0-1.381-1.243,0-1.174,1.381-1.175h20.171q1.382,0,1.382,1.175v.276a2.866,2.866,0,0,1-.553,1.727L534.593,73.544h20.171q1.381,0,1.382,1.174Q556.146,75.962,554.764,75.962ZM590.2,58.208H565.2a19.686,19.686,0,0,0,1.243,8.221,12.843,12.843,0,0,0,4.387,5.8,11.458,11.458,0,0,0,6.942,2.142q7.668,0,11.191-7.323.621-1.242,1.727-.759,1.106.552.483,1.865-4.144,8.565-13.4,8.565a13.831,13.831,0,0,1-7.737-2.21,15.174,15.174,0,0,1-5.319-6.113,19.9,19.9,0,0,1-1.934-8.946,19.9,19.9,0,0,1,1.934-8.946,15.167,15.167,0,0,1,5.319-6.113,13.832,13.832,0,0,1,7.737-2.211,12.408,12.408,0,0,1,7.461,2.245,14.7,14.7,0,0,1,4.731,5.63,15.808,15.808,0,0,1,1.624,6.908Q591.583,58.208,590.2,58.208ZM454.048,74.58v-11.6h-19.48q-1.381,0-1.381-.967a3.54,3.54,0,0,1,.483-1.658l20.24-32.191a1.706,1.706,0,0,1,1.52-.9q.967,0,.967,1.382V60.557h6.148q1.382,0,1.381,1.174,0,1.244-1.381,1.244H456.4v11.6q0,1.382-1.174,1.382T454.048,74.58Zm-50.427,2.072v-49.6q0-1.381,1.175-1.381,1.1,0,1.105,1.381v49.6q0,1.381-1.105,1.382Q403.621,78.034,403.621,76.652ZM471.18,74.58V44.324q0-1.382,1.243-1.382t1.243,1.382v4.835a12.111,12.111,0,0,1,4.629-5.042,13.182,13.182,0,0,1,7.184-2,15.554,15.554,0,0,1,2.659.173,1.039,1.039,0,0,1,.933,1.14q0,1.243-1.451,1.243a8.386,8.386,0,0,1-1.036-.069,8.908,8.908,0,0,0-1.105-.069,11.826,11.826,0,0,0-5.975,1.52,12.138,12.138,0,0,0-4.249,3.972,9.539,9.539,0,0,0-1.589,5.284V74.58q0,1.382-1.243,1.382T471.18,74.58ZM510,76.721a13.826,13.826,0,0,1-7.736-2.21,15.105,15.105,0,0,1-5.319-6.148,20.1,20.1,0,0,1-1.934-8.98,19.663,19.663,0,0,1,1.934-8.911,15.463,15.463,0,0,1,5.319-6.114,14.453,14.453,0,0,1,15.473,0,15.463,15.463,0,0,1,5.319,6.114,19.663,19.663,0,0,1,1.934,8.911,20.1,20.1,0,0,1-1.934,8.98,15.105,15.105,0,0,1-5.319,6.148A13.827,13.827,0,0,1,510,76.721ZM318.172,78.656a1.853,1.853,0,0,1-1.071.1,1.5,1.5,0,0,1-1-.794q-.552-1.106.829-1.8a44.12,44.12,0,0,0,8.013-4.525,18.736,18.736,0,0,0,5.216-5.8,25.729,25.729,0,0,0,2.832-8.635,81.333,81.333,0,0,0,.863-12.952,1.214,1.214,0,0,1,.415-.933,1.306,1.306,0,0,1,.9-.38,1.065,1.065,0,0,1,.932.311,1.265,1.265,0,0,1,.38.933,81.5,81.5,0,0,1-.932,13.366,28.639,28.639,0,0,1-3.074,9.291,22.253,22.253,0,0,1-5.63,6.563A46.142,46.142,0,0,1,318.172,78.656ZM510,74.3a11.542,11.542,0,0,0,6.494-1.865,12.679,12.679,0,0,0,4.455-5.25,17.84,17.84,0,0,0,1.624-7.806,17.606,17.606,0,0,0-1.624-7.771A12.717,12.717,0,0,0,516.5,46.4,11.542,11.542,0,0,0,510,44.531a11.706,11.706,0,0,0-6.527,1.865,12.617,12.617,0,0,0-4.49,5.216,17.606,17.606,0,0,0-1.624,7.771,17.84,17.84,0,0,0,1.624,7.806,12.58,12.58,0,0,0,4.49,5.25A11.706,11.706,0,0,0,510,74.3ZM454.048,32.235,436.364,60.557h17.684ZM352.089,78.241V44.186a1.113,1.113,0,0,1,.414-.9,1.374,1.374,0,0,1,.9-.346q1.313,0,1.313,1.244V78.241a1.306,1.306,0,0,1-.38.9,1.217,1.217,0,0,1-.933.415,1.431,1.431,0,0,1-1.312-1.313Zm213.382-22.45h23.694a12.8,12.8,0,0,0-1.8-5.492,12.546,12.546,0,0,0-3.972-4.11,10.125,10.125,0,0,0-5.63-1.589,11.436,11.436,0,0,0-8.013,3.04A14.293,14.293,0,0,0,565.471,55.791Z" transform="translate(-2 -1.235)"/></svg>