<?xml version="1.0" encoding="UTF-8"?>
<!DOCTYPE svg PUBLIC "-//W3C//DTD SVG 1.1//EN" "http://www.w3.org/Graphics/SVG/1.1/DTD/svg11.dtd">
<svg xmlns="http://www.w3.org/2000/svg" version="1.1" width="3424px" height="3520px" style="shape-rendering:geometricPrecision; text-rendering:geometricPrecision; image-rendering:optimizeQuality; fill-rule:evenodd; clip-rule:evenodd" xmlns:xlink="http://www.w3.org/1999/xlink">
<g><path style="opacity:0.534" fill="#fefffe" d="M 1715.5,-0.5 C 1716.17,-0.5 1716.83,-0.5 1717.5,-0.5C 1726.76,75.986 1740.6,151.653 1759,226.5C 1798.26,385.62 1846.76,541.787 1904.5,695C 1917.78,698.11 1930.94,701.61 1944,705.5C 1944.77,705.355 1945.44,705.022 1946,704.5C 1965.85,586.709 1981.18,468.376 1992,349.5C 2016.24,492.55 2057.24,630.55 2115,763.5C 2127.06,707.647 2146.06,654.314 2172,603.5C 2175.27,641.526 2182.27,678.859 2193,715.5C 2207.73,767.011 2225.23,817.511 2245.5,867C 2385.97,986.671 2477.8,1136.84 2521,1317.5C 2525.77,1338.69 2529.77,1360.02 2533,1381.5C 2542.71,1317.93 2553.71,1254.6 2566,1191.5C 2588.05,1320.35 2599.21,1450.19 2599.5,1581C 2598.53,1640.87 2596.7,1700.71 2594,1760.5C 2604.09,1849.39 2617.76,1937.73 2635,2025.5C 2642.56,2064.4 2653.22,2102.4 2667,2139.5C 2676.21,2161.07 2689.71,2179.57 2707.5,2195C 2726.17,2211 2744.83,2227 2763.5,2243C 2817.29,2294.72 2851.12,2357.55 2865,2431.5C 2873.58,2473.07 2878.58,2515.07 2880,2557.5C 2880.82,2597.26 2880.49,2636.92 2879,2676.5C 2907.93,2640.87 2932.93,2602.53 2954,2561.5C 2986.78,2494.26 2993.11,2424.59 2973,2352.5C 2962.61,2316.71 2948.61,2282.38 2931,2249.5C 2914.59,2219.67 2896.92,2190.67 2878,2162.5C 2855.44,2130.54 2832.27,2099.04 2808.5,2068C 2838.02,1958.34 2849.52,1846.84 2843,1733.5C 2838.23,1653.73 2817.56,1578.4 2781,1507.5C 2748.84,1450 2705.51,1402.67 2651,1365.5C 2645.35,1296 2636.02,1227 2623,1158.5C 2618.82,1137.8 2613.32,1117.47 2606.5,1097.5C 2606.83,1097.17 2607.17,1096.83 2607.5,1096.5C 2721.02,1180.49 2825.52,1275.16 2921,1380.5C 2983.56,1450.9 3036.22,1528.23 3079,1612.5C 3111.98,1679.76 3134.31,1750.43 3146,1824.5C 3235.96,1953.85 3290.29,2097.18 3309,2254.5C 3335.28,2487.72 3283.28,2701.38 3153,2895.5C 3099,2972.85 3035.16,3041.35 2961.5,3101C 2858,3183.77 2743.66,3247.94 2618.5,3293.5C 2696.29,3146.62 2745.46,2990.62 2766,2825.5C 2773.78,2762.19 2774.12,2698.85 2767,2635.5C 2763.01,2596.52 2752.34,2559.52 2735,2524.5C 2727.22,2509.05 2715.72,2497.22 2700.5,2489C 2688.63,2483.57 2676.63,2483.24 2664.5,2488C 2648.08,2495.74 2633.91,2506.57 2622,2520.5C 2619.48,2616.48 2608.48,2711.48 2589,2805.5C 2562.51,2932.39 2513.84,3049.73 2443,3157.5C 2324.42,3326.95 2164.92,3439.45 1964.5,3495C 1922.94,3506.21 1880.94,3514.38 1838.5,3519.5C 1834.5,3519.5 1830.5,3519.5 1826.5,3519.5C 1880.99,3499.09 1932.99,3473.59 1982.5,3443C 1988.5,3438.67 1994.5,3434.33 2000.5,3430C 1950.27,3440.14 1899.93,3450.14 1849.5,3460C 1688.8,3491.08 1526.64,3507.58 1363,3509.5C 1225.01,3510.52 1089.18,3494.02 955.5,3460C 770.044,3410.29 604.711,3323.96 459.5,3201C 351.441,3107.64 256.275,3003.14 174,2887.5C 156.086,2862.01 138.42,2836.34 121,2810.5C 120.018,2809.24 119.685,2807.91 120,2806.5C 246.05,2933.87 389.883,3036.37 551.5,3114C 776.046,3217.15 1011.71,3259.82 1258.5,3242C 1412.5,3230.8 1562.5,3200.13 1708.5,3150C 1709.58,3149.33 1710.25,3148.33 1710.5,3147C 1692.49,3022.42 1670.32,2898.59 1644,2775.5C 1628.92,2704.85 1610.25,2635.18 1588,2566.5C 1577.01,2532.85 1563.01,2500.52 1546,2469.5C 1539.25,2458.19 1530.75,2448.35 1520.5,2440C 1512.34,2434.5 1504.01,2434.17 1495.5,2439C 1486.03,2447.07 1478.87,2456.91 1474,2468.5C 1460.35,2504.72 1451.02,2542.06 1446,2580.5C 1441.05,2614.29 1436.88,2648.12 1433.5,2682C 1489.93,2693.09 1546.6,2702.75 1603.5,2711C 1514.45,2761.9 1418.79,2792.57 1316.5,2803C 1200.62,2813.82 1086.29,2804.82 973.5,2776C 830.276,2738.71 696.276,2680.71 571.5,2602C 439.485,2519.36 323.318,2417.86 223,2297.5C 162.047,2223.33 111.381,2142.33 71,2054.5C 37.1891,1979.26 15.8557,1900.59 7,1818.5C 3.85338,1790.4 1.35338,1762.4 -0.5,1734.5C -0.5,1709.5 -0.5,1684.5 -0.5,1659.5C 1.11816,1632.26 5.28483,1605.26 12,1578.5C 17.4492,1556.93 27.1159,1537.6 41,1520.5C 60.3825,1499.59 84.2159,1491.43 112.5,1496C 120.404,1497.56 128.071,1499.56 135.5,1502C 100.343,1416.71 83.3432,1327.88 84.5,1235.5C 85.0242,1143.69 99.1908,1054.02 127,966.5C 146.085,905.331 170.418,846.331 200,789.5C 205.248,780.002 210.748,770.669 216.5,761.5C 206.429,942.804 222.929,1121.8 266,1298.5C 304.609,1461.67 362.942,1617.34 441,1765.5C 474.523,1827.92 513.023,1886.92 556.5,1942.5C 535.225,1940.95 514.225,1937.11 493.5,1931C 410.064,1904.86 332.898,1866.7 262,1816.5C 272.329,1838.81 284.996,1859.81 300,1879.5C 347.944,1939.52 405.777,1987.35 473.5,2023C 488.075,2030.45 502.742,2037.62 517.5,2044.5C 581.727,2145.2 654.894,2239.2 737,2326.5C 878.896,2473.51 1048.4,2576.34 1245.5,2635C 1300.52,2652.17 1356.19,2666.01 1412.5,2676.5C 1390.98,2601.11 1367.15,2526.44 1341,2452.5C 1320.52,2394.21 1296.19,2337.54 1268,2282.5C 1255.69,2258.87 1241.02,2236.87 1224,2216.5C 1214.78,2205.81 1203.61,2197.98 1190.5,2193C 1177.32,2191.01 1167.48,2195.84 1161,2207.5C 1151.14,2227.65 1146.31,2248.98 1146.5,2271.5C 1132.67,2188.5 1108.83,2108.5 1075,2031.5C 1010.93,1952.07 962.934,1863.4 931,1765.5C 931.258,1898.4 920.592,2030.4 899,2161.5C 869.479,2021.52 849.479,1880.19 839,1737.5C 826.737,1554.35 836.07,1372.35 867,1191.5C 879.16,1254.63 890.16,1317.97 900,1381.5C 933.885,1173.32 1030.22,1000.98 1189,864.5C 1216.5,797.013 1238.16,727.68 1254,656.5C 1257.4,638.975 1259.73,621.308 1261,603.5C 1286.94,654.303 1305.94,707.636 1318,763.5C 1375.76,630.552 1416.76,492.552 1441,349.5C 1452.06,468.659 1467.23,587.326 1486.5,705.5C 1500.47,702.006 1514.47,698.506 1528.5,695C 1586.24,541.787 1634.74,385.62 1674,226.5C 1692.4,151.655 1706.24,75.9885 1715.5,-0.5 Z M 1715.5,718.5 C 1717.02,718.511 1718.18,719.177 1719,720.5C 1767.47,785.935 1816.3,851.102 1865.5,916C 1917.62,893.947 1969.62,871.28 2021.5,848C 2022.83,847.333 2024.17,847.333 2025.5,848C 2164.76,923.683 2268.92,1032.85 2338,1175.5C 2414.65,1340.01 2433.65,1511.01 2395,1688.5C 2349,1883.33 2243.67,2036.66 2079,2148.5C 2038.72,2105.43 1998.55,2062.26 1958.5,2019C 1957.83,2018.33 1957.17,2018.33 1956.5,2019C 1876.63,2155.92 1796.63,2292.75 1716.5,2429.5C 1636.37,2292.75 1556.37,2155.92 1476.5,2019C 1475.83,2018.33 1475.17,2018.33 1474.5,2019C 1433.99,2061.88 1393.82,2105.05 1354,2148.5C 1214.4,2054.86 1116.73,1928.53 1061,1769.5C 1008.44,1611.64 1004.77,1452.64 1050,1292.5C 1103.22,1115.42 1206.72,976.25 1360.5,875C 1376.47,865.194 1392.81,856.027 1409.5,847.5C 1462.16,870.669 1514.82,893.503 1567.5,916C 1616.96,850.226 1666.3,784.393 1715.5,718.5 Z M 1695.5,1097.5 C 1777.88,1094.11 1847.38,1122.11 1904,1181.5C 1960.77,1245.09 1991.77,1319.76 1997,1405.5C 2002.08,1491.55 1980.75,1570.21 1933,1641.5C 1903.07,1683.77 1864.9,1716.27 1818.5,1739C 1719.12,1779.14 1628.79,1764.47 1547.5,1695C 1488.44,1639.39 1452.61,1571.22 1440,1490.5C 1424.67,1388.83 1446,1295.83 1504,1211.5C 1544.3,1156.59 1597.47,1120.42 1663.5,1103C 1674.25,1100.83 1684.92,1098.99 1695.5,1097.5 Z M 1723.5,3144.5 C 1745.97,2978.68 1777.8,2814.68 1819,2652.5C 1831.41,2605.17 1846.75,2558.84 1865,2513.5C 1873.32,2493.87 1883.32,2475.2 1895,2457.5C 1901.3,2448.86 1909.14,2442.03 1918.5,2437C 1926.56,2434.27 1933.89,2435.6 1940.5,2441C 1947.9,2448.4 1953.73,2456.9 1958,2466.5C 1970.41,2497.46 1979.07,2529.46 1984,2562.5C 1993.01,2619.57 1999.67,2676.91 2004,2734.5C 2028.97,2643.25 2056.97,2552.91 2088,2463.5C 2109.53,2401.43 2135.2,2341.1 2165,2282.5C 2177.31,2258.87 2191.98,2236.87 2209,2216.5C 2244.27,2179.06 2268.6,2185.06 2282,2234.5C 2284.4,2246.72 2285.9,2259.06 2286.5,2271.5C 2300.34,2188.49 2324.17,2108.49 2358,2031.5C 2422.35,1951.84 2470.35,1862.84 2502,1764.5C 2501.64,1890.27 2511.14,2015.27 2530.5,2139.5C 2500.34,2282.15 2453.17,2418.82 2389,2549.5C 2321.03,2686.16 2231.53,2806.99 2120.5,2912C 2005.4,3017.72 1873.07,3095.22 1723.5,3144.5 Z"/></g>
<g><path style="opacity:0.299" fill="#fefffe" d="M 1767.5,13.5 C 1837.11,11.804 1906.44,15.1374 1975.5,23.5C 1975.83,25.5 1976.17,27.5 1976.5,29.5C 1973.22,70.5129 1969.89,111.513 1966.5,152.5C 1906.27,153.636 1846.61,159.97 1787.5,171.5C 1776.12,119.533 1766.78,67.1995 1759.5,14.5C 1762.39,14.8064 1765.05,14.4731 1767.5,13.5 Z"/></g>
<g><path style="opacity:0.299" fill="#fefffe" d="M 1671.5,19.5 C 1672.14,20.0968 1672.47,20.9302 1672.5,22C 1663.31,86.1231 1650.98,149.623 1635.5,212.5C 1581.47,231.849 1528.8,254.515 1477.5,280.5C 1470.71,205.545 1464.38,130.545 1458.5,55.5C 1528.88,39.0487 1599.88,27.0487 1671.5,19.5 Z"/></g>
<g><path style="opacity:0.3" fill="#fefffe" d="M 1983.5,24.5 C 2147.27,43.5873 2299.6,95.4206 2440.5,180C 2542.21,242.869 2628.55,322.703 2699.5,419.5C 2514.59,381.866 2330.25,385.366 2146.5,430C 2129.72,434.261 2113.05,438.928 2096.5,444C 2131,449.249 2165.33,455.249 2199.5,462C 2183.96,492.245 2168.29,522.412 2152.5,552.5C 2151.64,553.583 2150.64,553.749 2149.5,553C 2138.67,545.087 2127.67,537.42 2116.5,530C 2099.64,519.736 2082.64,509.736 2065.5,500C 2045.3,424.515 2030.3,348.015 2020.5,270.5C 2076.18,246.66 2133.85,229.16 2193.5,218C 2219.06,213.24 2244.72,209.24 2270.5,206C 2184.04,173.942 2094.71,156.442 2002.5,153.5C 1996.26,110.486 1989.93,67.4859 1983.5,24.5 Z"/></g>
<g><path style="opacity:0.301" fill="#fefffe" d="M 1442.5,59.5 C 1443.5,59.4701 1444.16,59.9701 1444.5,61C 1431.28,147.238 1417.78,233.405 1404,319.5C 1219.5,427.066 1061.16,565.4 929,734.5C 791.397,917.141 705.064,1122.14 670,1349.5C 651.115,1473.41 652.115,1597.07 673,1720.5C 573.71,1584.6 498.043,1435.93 446,1274.5C 353.414,971.818 364.081,672.818 478,377.5C 514.94,283.617 560.273,194.283 614,109.5C 587.145,275.405 584.478,441.738 606,608.5C 608.167,626.007 611.167,643.341 615,660.5C 690.377,530.08 787.211,417.58 905.5,323C 1065.49,198.011 1244.49,110.178 1442.5,59.5 Z"/></g>
<g><path style="opacity:0.296" fill="#fefffe" d="M 1952.5,304.5 C 1953.59,304.62 1954.25,305.287 1954.5,306.5C 1950.66,355.263 1945.82,403.93 1940,452.5C 1913.24,444.681 1886.08,438.515 1858.5,434C 1853.83,421.345 1850,408.512 1847,395.5C 1876.68,358.469 1911.85,328.136 1952.5,304.5 Z"/></g>
<g><path style="opacity:0.3" fill="#fefffe" d="M 3423.5,1888.5 C 3423.5,1898.5 3423.5,1908.5 3423.5,1918.5C 3378.92,1794.96 3328.76,1673.63 3273,1554.5C 3210.36,1421.46 3136.36,1295.79 3051,1177.5C 2987.42,1090.9 2914.92,1012.07 2833.5,941C 2674.3,805.407 2490.3,723.407 2281.5,695C 2261.71,663.865 2238.88,635.032 2213,608.5C 2210.13,559.83 2207.3,511.163 2204.5,462.5C 2342.3,485.701 2477.97,517.868 2611.5,559C 2715.4,591.29 2814.73,633.956 2909.5,687C 3073.6,780.77 3195.77,913.27 3276,1084.5C 3322.61,1189 3355.94,1297.66 3376,1410.5C 3393.58,1507.16 3405.92,1604.5 3413,1702.5C 3417.43,1764.61 3420.93,1826.61 3423.5,1888.5 Z"/></g>
<g><path style="opacity:0.991" fill="#fefffe" d="M 1715.5,854.5 C 1716.5,854.414 1717.33,854.748 1718,855.5C 1736,886.176 1755,916.176 1775,945.5C 1787.33,963.17 1801.16,979.67 1816.5,995C 1821.32,999.24 1826.32,1003.24 1831.5,1007C 1855.84,1021.84 1880.51,1036.17 1905.5,1050C 1971.54,1095.72 2020.38,1155.55 2052,1229.5C 2101.75,1349.65 2107.75,1471.98 2070,1596.5C 2044.86,1675.24 2001.7,1742.07 1940.5,1797C 1920.5,1813 1900.5,1829 1880.5,1845C 1853.65,1870.21 1833.48,1900.04 1820,1934.5C 1813.67,1949.83 1807.33,1965.17 1801,1980.5C 1772.34,2056.98 1744.17,2133.65 1716.5,2210.5C 1688.23,2131.96 1659.4,2053.62 1630,1975.5C 1619.21,1947.79 1606.88,1920.79 1593,1894.5C 1582.48,1876.3 1569.32,1860.14 1553.5,1846C 1530.32,1827.57 1507.32,1808.91 1484.5,1790C 1415.14,1723.17 1370.31,1642.34 1350,1547.5C 1324.81,1424.15 1340.81,1306.49 1398,1194.5C 1440.71,1115.12 1502.88,1056.29 1584.5,1018C 1600.88,1008.21 1615.72,996.377 1629,982.5C 1648.21,959.286 1665.88,934.953 1682,909.5C 1693.18,891.139 1704.34,872.805 1715.5,854.5 Z M 1695.5,1097.5 C 1684.92,1098.99 1674.25,1100.83 1663.5,1103C 1597.47,1120.42 1544.3,1156.59 1504,1211.5C 1446,1295.83 1424.67,1388.83 1440,1490.5C 1452.61,1571.22 1488.44,1639.39 1547.5,1695C 1628.79,1764.47 1719.12,1779.14 1818.5,1739C 1864.9,1716.27 1903.07,1683.77 1933,1641.5C 1980.75,1570.21 2002.08,1491.55 1997,1405.5C 1991.77,1319.76 1960.77,1245.09 1904,1181.5C 1847.38,1122.11 1777.88,1094.11 1695.5,1097.5 Z"/></g>
</svg>
